<?xml version="1.0" encoding="UTF-8"?>
<svg id="logo_invisible_shortener" data-name="logo_invisible_shortener" xmlns="http://www.w3.org/2000/svg" viewBox="0 0 544.2 129">
  <g id="logo_invisible_shortener_1" data-name="logo_invisible_shortener_1">
    <g>
      <path d="M3.6,48.42c-.18,0-.36-.06-.54-.12l-3.06-1.5.66-1.08c.48-.78.9-1.56,1.32-2.4.3-.54,1.02-.78,1.62-.48.6.3.78,1.08.48,1.62-.24.48-.48.9-.72,1.32l.72.36c.6.3.84,1.02.6,1.56-.24.48-.66.72-1.08.72ZM5.16,40.8c-.18,0-.36,0-.48-.12-.6-.24-.9-.96-.6-1.56.66-1.44,1.26-2.88,1.8-4.38.24-.6.96-.9,1.56-.66.6.24.96.9.72,1.56-.6,1.5-1.26,3-1.92,4.44-.18.48-.6.72-1.08.72ZM12.72,52.92l-5.34-2.58c-.6-.3-.84-.96-.54-1.56.24-.6.96-.84,1.56-.54l3.3,1.56c.6-1.02,1.14-2.04,1.62-3.06.3-.6,1.02-.84,1.62-.6.6.3.84,1.02.54,1.62-.66,1.44-1.44,2.82-2.22,4.2l-.54.96ZM8.58,31.86c-.12,0-.24,0-.36-.06-.6-.18-.96-.9-.78-1.5.48-1.5.9-3.06,1.32-4.56.12-.66.78-1.02,1.44-.84.66.12,1.02.78.84,1.44-.36,1.56-.84,3.12-1.32,4.68-.12.48-.6.84-1.14.84ZM10.92,22.56h-.24c-.6-.18-1.02-.78-.9-1.44.24-1.5.54-3.12.72-4.68.12-.66.72-1.08,1.38-1.02.66.12,1.08.72,1.02,1.38-.24,1.56-.48,3.18-.78,4.8-.12.54-.6.96-1.2.96ZM12.24,13.02h-.12c-.66-.06-1.14-.6-1.08-1.26.12-1.56.18-3.12.24-4.74.06-.66.6-1.2,1.26-1.14.66,0,1.2.54,1.14,1.2-.06,1.62-.12,3.3-.24,4.86-.06.66-.6,1.08-1.2,1.08ZM16.44,44.1c-.18,0-.36-.06-.48-.12-.6-.24-.9-.96-.66-1.56.6-1.44,1.2-2.94,1.74-4.44.24-.6.9-.9,1.56-.72.6.24.9.96.72,1.56-.54,1.5-1.14,3.06-1.8,4.56-.18.42-.66.72-1.08.72ZM21.72,8.4h-.06l-4.8-.24c-.66-.06-1.14-.6-1.14-1.26.06-.72.6-1.2,1.32-1.14l4.74.24c.66.06,1.2.6,1.14,1.26,0,.66-.54,1.14-1.2,1.14ZM19.68,35.04c-.12,0-.24,0-.36-.06-.66-.18-1.02-.84-.78-1.5.42-1.44.84-3,1.2-4.56.18-.66.78-1.02,1.44-.9.66.18,1.08.84.9,1.5-.36,1.56-.78,3.12-1.26,4.68-.18.54-.66.84-1.14.84ZM21.9,25.74c-.06,0-.12-.06-.24-.06-.6-.12-1.08-.72-.96-1.38.3-1.56.54-3.12.78-4.68.06-.66.72-1.14,1.32-1.02.66.06,1.14.66,1.08,1.32-.24,1.62-.48,3.24-.78,4.8-.12.6-.6,1.02-1.2,1.02ZM23.22,16.2h-.12c-.66-.06-1.14-.66-1.08-1.32.12-1.56.24-3.12.3-4.74,0-.66.6-1.14,1.26-1.14.66.06,1.14.6,1.14,1.26-.06,1.62-.18,3.24-.3,4.86-.06.6-.6,1.08-1.2,1.08ZM33.3,17.7c-.54,0-1.02-.36-1.14-.84-.54-1.56-1.02-3.06-1.5-4.56-.24-.6.12-1.32.72-1.5.66-.24,1.32.12,1.56.72.48,1.5,1.02,3.06,1.5,4.62.18.6-.18,1.26-.78,1.5-.12,0-.24.06-.36.06ZM32.52,9.78c-.48,0-.96-.36-1.14-.84-.18-.66.18-1.32.78-1.56l4.62-1.44c.6-.18,1.26.18,1.5.84.18.6-.18,1.26-.78,1.5l-4.62,1.44c-.12,0-.24.06-.36.06ZM36,26.88c-.48,0-.96-.36-1.14-.9-.42-1.56-.9-3.06-1.32-4.56-.18-.66.18-1.32.78-1.5.66-.18,1.32.18,1.5.78.48,1.56.9,3.06,1.38,4.68.18.6-.24,1.26-.84,1.44-.12.06-.24.06-.36.06ZM38.46,36.18c-.54,0-1.02-.36-1.14-.9-.42-1.62-.78-3.12-1.2-4.68-.18-.6.24-1.26.84-1.44.66-.18,1.32.18,1.5.84.36,1.56.78,3.12,1.2,4.68.12.66-.24,1.26-.9,1.44-.12,0-.18.06-.3.06ZM40.68,45.48c-.54,0-1.02-.36-1.14-.9-.36-1.62-.72-3.12-1.08-4.68-.18-.66.24-1.32.9-1.44.6-.18,1.26.24,1.44.9.36,1.56.72,3.12,1.08,4.68.12.66-.3,1.26-.96,1.44h-.24ZM43.14,11.88c-.54,0-.96-.3-1.14-.78-.54-1.56-1.08-3.06-1.68-4.5-.24-.6.12-1.32.72-1.56.6-.24,1.32.06,1.56.72.54,1.44,1.08,3,1.62,4.5.24.66-.06,1.32-.72,1.56-.12.06-.24.06-.36.06ZM41.28,52.74l-.24-1.14c-.18-.84-.36-1.62-.48-2.34-.18-.66.24-1.32.9-1.44.66-.12,1.26.3,1.44.9.06.42.18.84.24,1.2l1.14-.18c.66-.12,1.26.24,1.38.9.18.66-.24,1.26-.9,1.38l-3.48.72ZM46.14,21c-.48,0-.96-.36-1.14-.84-.48-1.56-.96-3.06-1.44-4.56-.24-.66.12-1.32.72-1.5.66-.24,1.32.12,1.56.72.48,1.5.96,3.06,1.44,4.62.24.6-.12,1.32-.78,1.5-.12,0-.24.06-.36.06ZM48.9,30.18c-.54,0-1.02-.36-1.2-.84-.42-1.56-.84-3.12-1.32-4.62-.18-.66.18-1.32.84-1.5.6-.18,1.32.18,1.5.84.42,1.5.9,3.06,1.32,4.62.18.6-.18,1.26-.84,1.44-.12.06-.24.06-.3.06ZM49.2,51.12c-.54,0-1.02-.42-1.14-.96-.18-.6.24-1.26.9-1.38l3.54-.72c-.06-.06-.06-.12-.06-.18-.36-1.56-.72-3.12-1.14-4.68-.12-.66.24-1.26.9-1.44.66-.18,1.32.24,1.44.9.42,1.5.78,3.06,1.14,4.68.06.24,0,.54-.06.72.18.18.3.42.36.72.12.6-.3,1.2-.9,1.32l-4.74.96c-.06.06-.18.06-.24.06ZM51.36,39.48c-.54,0-1.02-.36-1.2-.9-.36-1.56-.78-3.12-1.2-4.62-.12-.66.24-1.32.9-1.5.6-.18,1.26.24,1.44.84.42,1.56.78,3.12,1.2,4.68.18.66-.24,1.26-.84,1.44-.12.06-.24.06-.3.06Z" fill="#666" stroke-width="0"/>
      <path d="M62.28,20.58c-.48,0-.96-.36-1.14-.9l-.42-1.56,5.82-1.5c.66-.18,1.32.18,1.44.84.18.66-.18,1.26-.84,1.44l-3.72.96c-.18.36-.42.6-.78.66-.12.06-.24.06-.36.06ZM64.8,29.88c-.54,0-1.02-.36-1.2-.9-.42-1.68-.84-3.18-1.2-4.62-.18-.66.18-1.32.84-1.5.66-.18,1.32.24,1.5.84.36,1.44.78,3,1.2,4.68.18.6-.24,1.26-.84,1.44-.12.06-.24.06-.3.06ZM65.28,35.46l-.48-1.86c-.18-.66.24-1.26.9-1.44.48-.12.96.06,1.2.42l2.88-.72c.66-.18,1.32.18,1.5.84.12.66-.24,1.32-.9,1.44l-5.1,1.32ZM70.62,50.16c-.54,0-1.02-.36-1.14-.9l-1.14-4.68v-.24c-.06-.12-.12-.24-.12-.36-.12-.66.3-1.26.96-1.38,1.62-.24,3.18-.6,4.62-.96.6-.18,1.26.18,1.44.84.18.66-.18,1.32-.84,1.5-1.14.3-2.28.54-3.54.78l.96,3.96c.12.66-.24,1.2-.9,1.38-.12,0-.18.06-.3.06ZM72.06,23.58c-.54,0-1.02-.36-1.14-.9-.42-1.44-.84-2.94-1.26-4.62-.18-.66.18-1.32.84-1.44.6-.18,1.26.18,1.44.78.48,1.68.9,3.24,1.26,4.68.18.6-.18,1.26-.84,1.44-.12.06-.18.06-.3.06ZM73.14,52.68c-.54,0-1.08-.42-1.14-1.02-.12-.6.3-1.26.96-1.38,1.56-.3,3.12-.6,4.56-.96.66-.18,1.32.18,1.5.78.12.66-.24,1.32-.9,1.5-1.5.36-3.06.72-4.74,1.02-.06.06-.18.06-.24.06ZM74.52,32.88c-.54,0-1.02-.36-1.2-.96-.3-1.26-.72-2.82-1.2-4.62-.12-.6.24-1.26.9-1.44.6-.18,1.26.18,1.44.84.48,1.8.9,3.36,1.2,4.68.18.66-.24,1.26-.84,1.44-.12,0-.24.06-.3.06ZM74.58,18.9c-.54,0-1.02-.3-1.2-.84l-.66-2.52,5.82-1.56c.66-.12,1.26.24,1.44.9.18.6-.18,1.26-.84,1.44l-3.48.9.06.18c.18.66-.18,1.32-.84,1.5h-.3ZM77.04,28.2c-.54,0-1.02-.36-1.14-.9-.36-1.32-.78-2.88-1.26-4.62-.18-.66.24-1.32.84-1.5.66-.18,1.32.24,1.5.84.48,1.8.9,3.3,1.26,4.68.12.6-.24,1.26-.9,1.44-.06.06-.18.06-.3.06ZM77.4,33.18l-.3-1.14c-.18-.66.24-1.38.84-1.5.12-.06.24-.06.36-.06l4.2-1.08c.66-.18,1.32.18,1.5.84.12.66-.24,1.32-.9,1.5l-5.7,1.44ZM78.66,42.48c-.48,0-.96-.3-1.14-.72-.24-.66.06-1.32.66-1.62,1.5-.6,2.82-1.32,4.02-2.1.6-.36,1.32-.18,1.68.36s.24,1.32-.36,1.68c-1.32.84-2.82,1.62-4.44,2.28-.12.06-.3.12-.42.12ZM82.44,50.16c-.54,0-.96-.3-1.14-.72-.24-.6.06-1.32.72-1.56,1.5-.54,2.88-1.2,4.2-1.86.6-.36,1.32-.12,1.62.48.3.54.12,1.32-.48,1.62-1.38.72-2.94,1.44-4.5,1.98-.18.06-.3.06-.42.06ZM84.18,20.76c-.48,0-.96-.36-1.14-.9-.42-1.62-.84-3.12-1.26-4.62-.18-.6.18-1.32.84-1.5.6-.18,1.26.24,1.44.84.42,1.5.84,3.06,1.32,4.68.18.6-.24,1.26-.84,1.44-.12.06-.24.06-.36.06ZM86.64,30.06c-.54,0-1.02-.36-1.2-.9-.36-1.62-.78-3.18-1.14-4.68-.18-.66.18-1.26.84-1.44.66-.18,1.26.18,1.44.84.42,1.5.78,3.06,1.2,4.68.18.66-.24,1.26-.84,1.44-.12,0-.24.06-.3.06ZM86.52,37.14c-.3,0-.6-.06-.78-.3-.54-.42-.54-1.2-.12-1.68l.24-.3c.84-.96,1.56-2.1,2.22-3.42.3-.6,1.02-.84,1.62-.54.6.3.84,1.02.54,1.62-.72,1.44-1.56,2.76-2.52,3.9l-.3.3c-.24.3-.6.42-.9.42ZM90.78,45.66c-.36,0-.66-.18-.9-.48-.42-.54-.36-1.26.18-1.68,1.2-.96,2.28-2.04,3.3-3.18.42-.48,1.14-.54,1.68-.12.48.42.54,1.2.12,1.68-1.08,1.26-2.28,2.46-3.6,3.48-.24.18-.48.3-.78.3ZM90.96,28.74c-.12,0-.24-.06-.36-.06-.66-.18-1.02-.9-.78-1.5.42-1.38.78-2.94,1.08-4.56.12-.66.78-1.08,1.38-.96.66.12,1.08.78.96,1.44-.3,1.68-.72,3.3-1.14,4.8-.18.48-.66.84-1.14.84ZM92.76,19.32h-.12c-.66-.06-1.14-.66-1.08-1.32.06-.72.18-1.5.24-2.28l.06-1.14,3.66.18c.66.06,1.2.6,1.14,1.26,0,.66-.6,1.2-1.26,1.14l-1.32-.06c-.06.36-.06.78-.12,1.14-.06.6-.6,1.08-1.2,1.08ZM97.02,38.4c-.24,0-.42-.06-.6-.18-.6-.3-.78-1.08-.42-1.62.36-.66.72-1.32,1.02-2.04.36-.66.66-1.38.96-2.1.24-.66.96-.96,1.56-.72.6.24.9.96.66,1.56-.3.78-.66,1.56-.96,2.34-.42.72-.78,1.44-1.2,2.16-.24.36-.6.6-1.02.6ZM102.3,20.1c-.06,0-.12-.06-.18-.06-.66-.06-1.08-.66-1.02-1.32,0-.42.06-.84.12-1.26l-1.02-.06c-.66-.06-1.14-.6-1.14-1.26.06-.66.6-1.14,1.26-1.14l3.48.18-.12,1.2c-.06.9-.12,1.8-.24,2.64-.06.6-.54,1.08-1.14,1.08ZM100.56,29.52c-.06,0-.18,0-.3-.06-.6-.18-1.02-.84-.84-1.44.36-1.44.72-3,1.02-4.62.12-.66.72-1.08,1.38-.96.66.12,1.08.72.96,1.38-.3,1.68-.66,3.3-1.02,4.8-.18.54-.66.9-1.2.9Z" fill="#666" stroke-width="0"/>
      <path d="M111.54,25.5c-.18,0-.3,0-.48-.06-.6-.3-.9-1.02-.6-1.62l1.92-4.38c.24-.6.96-.9,1.56-.6.6.24.9.96.6,1.56l-1.92,4.38c-.18.48-.6.72-1.08.72ZM115.5,46.8c-.54,0-1.08-.42-1.2-.96l-.9-5.1,1.26-.12c1.62-.24,3.18-.48,4.68-.72.66-.12,1.26.36,1.38.96.12.66-.3,1.32-.96,1.44-1.14.18-2.34.36-3.54.54l.48,2.52c.12.66-.3,1.32-.96,1.44h-.24ZM119.88,18.54c-.12,0-.3-.06-.42-.12-1.56-.6-3-1.14-4.5-1.68-.6-.24-.9-.96-.66-1.56.24-.66.9-.96,1.56-.72,1.44.54,2.94,1.14,4.44,1.74.66.24.96.96.72,1.56-.18.48-.66.78-1.14.78ZM120.36,29.16c-.18,0-.36,0-.48-.06-1.56-.66-3.06-1.26-4.44-1.86-.6-.24-.9-.96-.66-1.56.24-.6.96-.9,1.56-.66,1.38.6,2.88,1.2,4.44,1.86.6.24.9.96.66,1.56-.18.48-.66.72-1.08.72ZM115.62,52.92l-.42-2.46c-.12-.6.3-1.2.96-1.32.66-.12,1.26.3,1.38.9l.06.3c.72-.12,1.5-.18,2.22-.3.66-.12,1.26.36,1.38,1.02.06.66-.36,1.26-1.02,1.38-1.14.12-2.28.24-3.42.36l-1.14.12ZM117.48,13.38c-.12,0-.3,0-.42-.06l-1.44-.54,2.28-5.28c.24-.6.96-.9,1.56-.66.6.3.9.96.66,1.62l-1.5,3.36c.12.24.12.54,0,.84-.18.48-.66.72-1.14.72ZM125.1,5.82c-.12,0-.3,0-.42-.06-1.08-.42-2.1-.84-3.12-1.2-.3.24-.72.24-1.14.12-.6-.3-.9-1.02-.6-1.62l.66-1.5,1.08.42c1.26.48,2.58,1.02,4.02,1.56.6.24.9.96.66,1.56-.18.48-.66.72-1.14.72ZM126.36,17.04c-.12,0-.3-.06-.42-.12-1.5-.66-3-1.26-4.44-1.8-.6-.3-.9-.96-.66-1.56.24-.66.96-.96,1.56-.66,1.44.54,2.94,1.2,4.44,1.8.6.24.9.96.66,1.56-.18.48-.66.78-1.14.78ZM124.26,41.34c-.54,0-1.02-.36-1.14-.96-.18-.6.24-1.26.84-1.44,1.62-.36,3.12-.78,4.56-1.26.6-.18,1.32.12,1.5.78.18.6-.12,1.32-.78,1.5-1.44.48-3.06.96-4.68,1.32-.12.06-.18.06-.3.06ZM128.76,22.14c-.12,0-.3,0-.48-.06-1.5-.66-2.94-1.26-4.38-1.86-.66-.24-.9-.96-.66-1.56.24-.6.96-.9,1.56-.66,1.44.6,2.94,1.2,4.44,1.86.6.24.9.96.66,1.56-.24.48-.66.72-1.14.72ZM124.74,51.66c-.6,0-1.08-.42-1.2-.96-.12-.66.3-1.26.96-1.38,1.56-.3,3.12-.66,4.62-1.02.66-.18,1.32.24,1.44.9.18.6-.18,1.2-.84,1.38-1.56.36-3.12.72-4.74,1.02-.12.06-.18.06-.24.06ZM129.72,33.36l-1.02-.48c-1.56-.66-3-1.32-4.44-1.92-.6-.24-.9-.96-.6-1.56.24-.6.96-.9,1.56-.66,1.2.54,2.4,1.08,3.66,1.62.3-.12.6-.12.9.06.6.24.9.96.6,1.56l-.66,1.38ZM133.98,9.48c-.12,0-.3,0-.42-.12-1.56-.6-3-1.2-4.44-1.8-.6-.24-.9-.96-.66-1.56.24-.6.96-.9,1.56-.66,1.44.6,2.94,1.2,4.44,1.86.6.24.9.96.66,1.56-.24.42-.66.72-1.14.72ZM135.78,21.18l-1.02-.48c-1.5-.66-3-1.32-4.44-1.92-.6-.24-.9-.96-.6-1.56.24-.6.96-.9,1.56-.66,1.08.48,2.22.96,3.36,1.44l.06-.18c.3-.6,1.02-.9,1.62-.6s.84.96.6,1.56l-1.14,2.4ZM131.34,28.32c-.18,0-.36,0-.54-.12-.6-.24-.84-.96-.6-1.56l1.8-3.78c0-.18,0-.36.06-.48.3-.6,1.02-.9,1.62-.66l1.2.54-2.46,5.4c-.24.42-.66.66-1.08.66ZM133.38,38.28c-.48,0-.9-.24-1.14-.66-.24-.6,0-1.32.6-1.62l.42-.18c1.26-.6,2.52-1.32,3.66-2.04.54-.36,1.26-.18,1.62.36.36.54.24,1.26-.3,1.68-1.26.78-2.58,1.5-3.96,2.16l-.42.18c-.18.12-.36.12-.48.12ZM134.04,49.32c-.54,0-.96-.3-1.14-.84-.24-.6.12-1.26.72-1.5,1.56-.48,3-1.08,4.38-1.68.66-.24,1.32.06,1.62.66.24.6,0,1.32-.66,1.56-1.44.6-2.94,1.2-4.56,1.74-.12.06-.24.06-.36.06ZM137.82,15.18c-.12,0-.3-.06-.48-.12-.6-.3-.84-1.02-.6-1.62l1.08-2.22c-.54-.3-.78-.96-.48-1.56.24-.6.96-.84,1.56-.6l2.1.9-2.04,4.5c-.24.42-.66.72-1.14.72ZM141.36,33.06c-.36,0-.66-.12-.9-.42-.42-.48-.42-1.2.06-1.68,1.14-1.02,2.16-2.16,3.12-3.36.42-.54,1.14-.66,1.68-.24s.6,1.14.24,1.68c-1.02,1.32-2.16,2.58-3.42,3.72-.24.18-.48.3-.78.3ZM142.8,45.48c-.42,0-.84-.24-1.02-.6-.36-.6-.12-1.32.42-1.62,1.38-.78,2.7-1.68,3.9-2.58.54-.36,1.26-.3,1.68.24.42.54.3,1.32-.24,1.68-1.26.96-2.7,1.86-4.14,2.7-.18.12-.42.18-.6.18ZM147.18,25.5c-.18,0-.36-.06-.54-.18-.6-.3-.84-1.02-.48-1.62.66-1.26,1.38-2.7,1.98-4.2.24-.6.9-.9,1.56-.66.6.24.9.96.66,1.56-.66,1.56-1.38,3.12-2.1,4.44-.24.42-.66.66-1.08.66ZM150.42,39.72c-.3,0-.6-.12-.84-.36-.48-.48-.48-1.26,0-1.68,1.08-1.08,2.04-2.28,3-3.54.42-.54,1.14-.66,1.68-.24s.66,1.14.24,1.68c-1.02,1.32-2.1,2.58-3.24,3.78-.24.24-.54.36-.84.36ZM150.84,16.62c-.12,0-.24,0-.36-.06-.66-.18-1.02-.84-.84-1.5.48-1.38.84-2.88,1.2-4.44l.3-1.2,1.2.3c.6.18,1.08.84.9,1.5-.06.12-.06.24-.12.3-.36,1.5-.72,2.88-1.14,4.26-.18.48-.66.84-1.14.84ZM156.18,32.04c-.24,0-.42-.06-.6-.18-.6-.3-.78-1.02-.48-1.62.78-1.32,1.44-2.7,2.1-4.2.3-.6.96-.84,1.56-.6.66.3.9.96.66,1.56-.66,1.56-1.44,3.06-2.22,4.44-.24.36-.6.6-1.02.6ZM161.4,14.58c-.12,0-.18,0-.3-.06l-4.62-1.2c-.66-.18-1.02-.84-.9-1.5.18-.6.84-1.02,1.5-.84l4.62,1.26c.66.12,1.02.78.84,1.44-.12.54-.6.9-1.14.9ZM160.02,23.28c-.12,0-.24-.06-.36-.06-.66-.24-.96-.9-.78-1.56.48-1.44.9-2.94,1.32-4.5.18-.66.78-1.02,1.44-.84.66.12,1.02.78.9,1.44-.42,1.62-.9,3.18-1.38,4.68-.18.48-.66.84-1.14.84Z" fill="#666" stroke-width="0"/>
      <path d="M170.46,49.32c-.72,0-1.2-.54-1.2-1.2v-4.8c0-.66.48-1.2,1.2-1.2.66,0,1.2.54,1.2,1.2v4.8c0,.66-.54,1.2-1.2,1.2ZM177.66,42.12h-4.8c-.72,0-1.2-.54-1.2-1.2s.48-1.2,1.2-1.2h4.8c.66,0,1.2.54,1.2,1.2s-.54,1.2-1.2,1.2ZM178.68,50.58h-4.8c-.66,0-1.2-.54-1.2-1.14,0-.66.54-1.2,1.2-1.2h4.8c.72,0,1.2.54,1.2,1.2,0,.6-.48,1.14-1.2,1.14ZM175.26,20.1c-.72,0-1.2-.54-1.2-1.2v-3.54h3.6c.66,0,1.2.54,1.2,1.2s-.54,1.2-1.2,1.2h-1.2v1.14c0,.66-.54,1.2-1.2,1.2ZM178.68,26.28h-4.62v-2.58c0-.66.48-1.2,1.2-1.2.66,0,1.2.54,1.2,1.2v.18h2.22c.66,0,1.2.54,1.2,1.2s-.54,1.2-1.2,1.2ZM187.26,17.76h-4.8c-.66,0-1.2-.54-1.2-1.2s.54-1.2,1.2-1.2h4.8c.66,0,1.2.54,1.2,1.2s-.54,1.2-1.2,1.2ZM187.26,42.12h-4.8c-.72,0-1.2-.54-1.2-1.2s.48-1.2,1.2-1.2h4.8c.66,0,1.2.54,1.2,1.2s-.54,1.2-1.2,1.2ZM188.28,26.28h-4.8c-.66,0-1.2-.54-1.2-1.2s.54-1.2,1.2-1.2h4.8c.66,0,1.2.54,1.2,1.2s-.54,1.2-1.2,1.2ZM188.28,50.58h-4.8c-.66,0-1.2-.54-1.2-1.14,0-.66.54-1.2,1.2-1.2h4.8c.72,0,1.2.54,1.2,1.2,0,.6-.48,1.14-1.2,1.14ZM191.46,41.52h-.06c-.66-.06-1.2-.6-1.14-1.26l.24-4.8c.06-.66.54-1.2,1.26-1.14.66.06,1.14.6,1.14,1.26l-.24,4.8c-.06.66-.54,1.14-1.2,1.14ZM191.94,31.92h-.06c-.66,0-1.2-.6-1.14-1.26l.24-4.8c0-.66.6-1.2,1.26-1.14.66.06,1.14.6,1.14,1.26l-.24,4.8c-.06.66-.6,1.14-1.2,1.14ZM196.86,17.76h-4.8c-.66,0-1.2-.54-1.2-1.2s.54-1.2,1.2-1.2h4.8c.66,0,1.2.54,1.2,1.2s-.54,1.2-1.2,1.2ZM197.88,50.58h-4.8c-.66,0-1.2-.54-1.2-1.14,0-.66.54-1.2,1.2-1.2h4.8c.72,0,1.2.54,1.2,1.2,0,.6-.48,1.14-1.2,1.14ZM206.22,42.12h-4.8c-.72,0-1.2-.54-1.2-1.2,0-.24.06-.48.18-.72-.12-.18-.18-.42-.12-.66l.24-4.8c0-.66.54-1.14,1.2-1.14.72.06,1.2.6,1.14,1.26l-.18,4.8s0,.06-.06.06h3.6c.66,0,1.2.54,1.2,1.2s-.54,1.2-1.2,1.2ZM202.38,21.66h-.06c-.66-.06-1.14-.6-1.14-1.26l.18-2.7c-.54-.12-.9-.6-.9-1.14,0-.66.54-1.2,1.2-1.2h2.22l-.3,5.16c0,.6-.54,1.14-1.2,1.14ZM201.9,31.2h-.06c-.66,0-1.14-.6-1.14-1.26l.24-4.74c.06-.72.6-1.2,1.26-1.14.66,0,1.2.54,1.14,1.2l-.24,4.8c0,.66-.54,1.14-1.2,1.14ZM207.48,50.58h-4.8c-.66,0-1.2-.54-1.2-1.14,0-.66.54-1.2,1.2-1.2h4.8c.72,0,1.2.54,1.2,1.2,0,.6-.48,1.14-1.2,1.14ZM209.82,48.12c-.72,0-1.2-.54-1.2-1.2v-4.8c0-.66.48-1.2,1.2-1.2.66,0,1.2.54,1.2,1.2v4.8c0,.66-.54,1.2-1.2,1.2Z" fill="#666" stroke-width="0"/>
      <path d="M235.14,50.34c-.12,0-.3-.06-.48-.12-.6-.24-.84-.9-.6-1.5.66-1.5,1.32-2.94,1.92-4.38.24-.6.96-.9,1.56-.66.6.24.9.96.66,1.56-.66,1.5-1.26,2.94-1.92,4.44-.24.42-.66.66-1.14.66ZM237.84,20.88c-.6,0-1.14-.48-1.2-1.14l-.3-4.8c0-.66.48-1.2,1.14-1.26.66,0,1.2.48,1.26,1.14l.3,4.8c.06.66-.48,1.2-1.14,1.26h-.06ZM238.74,24.96c-.6,0-1.14-.48-1.14-1.08-.12-.66.42-1.26,1.08-1.32l4.74-.42c.66-.06,1.26.42,1.32,1.08.06.66-.42,1.2-1.08,1.26l-4.8.48h-.12ZM238.92,41.52c-.18,0-.3,0-.48-.06-.6-.24-.9-.96-.66-1.56.6-1.5,1.14-3,1.68-4.44.24-.66.96-.96,1.56-.72.6.24.96.9.72,1.56-.54,1.44-1.14,2.94-1.74,4.5-.18.48-.6.72-1.08.72ZM243.78,54.24c-.12,0-.3-.06-.48-.12l-4.38-1.92c-.6-.24-.9-.96-.6-1.56.24-.6.96-.84,1.56-.66l4.38,1.92c.6.3.9.96.66,1.62-.24.42-.66.72-1.14.72ZM241.62,15.06c-.6,0-1.14-.48-1.2-1.08-.06-.66.42-1.26,1.08-1.32l4.8-.42c.66-.06,1.26.42,1.32,1.08s-.48,1.26-1.14,1.32l-4.74.42h-.12ZM242.22,32.52c-.12,0-.3,0-.42-.06-.6-.18-.96-.9-.72-1.5.48-1.56.96-3.06,1.44-4.56.18-.6.84-.96,1.44-.78.66.18,1.02.84.84,1.5-.48,1.5-.96,3.06-1.44,4.62-.18.48-.66.78-1.14.78ZM245.88,50.28c-.12,0-.3-.06-.48-.12-.6-.24-.84-.9-.6-1.5.6-1.5,1.2-2.94,1.8-4.44.24-.6.96-.9,1.56-.66.6.24.9.96.66,1.56-.6,1.5-1.2,2.94-1.8,4.44-.24.42-.66.72-1.14.72ZM247.74,10.38h-.24c-.66-.12-1.08-.78-.96-1.38.24-1.44.48-3,.72-4.74.12-.66.72-1.08,1.38-1.02.66.12,1.08.72,1.02,1.38-.3,1.74-.54,3.3-.78,4.74-.06.6-.6,1.02-1.14,1.02ZM250.44,51.06c-.18,0-.36-.06-.54-.12-.42-.18-.84-.42-1.26-.6l-.96-.48,1.74-4.2c.24-.6.96-.9,1.56-.66.6.3.9.96.66,1.62l-.9,2.1c.06.06.12.06.24.12.6.3.84,1.02.54,1.56-.24.42-.66.66-1.08.66ZM249.48,41.4c-.18,0-.3,0-.42-.06-.66-.24-.96-.96-.72-1.56l1.62-4.5c.18-.6.9-.96,1.5-.72.66.18.96.9.72,1.5-.48,1.5-1.02,3.06-1.62,4.56-.18.48-.6.78-1.08.78ZM255.3,3.12l-.06-.06-4.8-.42c-.66-.06-1.14-.66-1.08-1.32.06-.66.66-1.14,1.32-1.08l4.74.48c.66.06,1.14.6,1.08,1.26-.06.66-.54,1.14-1.2,1.14ZM256.08,43.38c-.18,0-.3-.06-.48-.12-.6-.24-1.32-.6-2.16-1.02-.3.54-.96.78-1.56.54-.6-.24-.9-.9-.6-1.56l.9-2.28,1.2.6c1.26.66,2.34,1.2,3.18,1.5.6.24.9.96.66,1.56-.24.48-.66.78-1.14.78ZM252.6,32.34c-.12,0-.24-.06-.36-.06-.66-.18-1.02-.9-.84-1.5.54-1.56.96-3.06,1.38-4.56.18-.66.84-1.02,1.5-.84.6.18,1.02.84.84,1.44-.48,1.56-.9,3.12-1.38,4.68-.18.48-.66.84-1.14.84ZM259.5,54h-.06c-1.5-.12-3.12-.48-4.98-1.14-.66-.18-.96-.9-.72-1.5.18-.66.9-.96,1.5-.72,1.62.54,3.12.9,4.38.96.66.06,1.14.66,1.08,1.32-.06.6-.6,1.08-1.2,1.08ZM260.4,23.7h-.36c-.3-.12-.84-.18-1.8-.18-.9,0-1.74,0-2.58.06-.66.06-1.2-.48-1.26-1.14-.06-.66.48-1.2,1.14-1.26.84-.06,1.74-.06,2.7-.06,1.02,0,1.8.06,2.46.24.66.18,1.02.84.84,1.5-.18.54-.66.84-1.14.84ZM263.34,13.98h-.06c-1.26-.06-2.88-.06-4.74-.06h-1.14c-.66,0-1.2-.54-1.2-1.2s.54-1.2,1.2-1.2h1.14c1.92,0,3.54,0,4.8.06.66.06,1.2.6,1.14,1.26,0,.66-.54,1.14-1.14,1.14ZM257.88,9.42h-.18c-.66-.12-1.08-.72-.96-1.38.24-1.74.48-3.3.72-4.68.06-.66.72-1.14,1.32-1.02.66.06,1.14.66,1.02,1.32-.18,1.44-.42,3-.72,4.8-.12.54-.6.96-1.2.96ZM259.98,42.12c-.18,0-.36-.06-.54-.12-.6-.3-.84-1.02-.54-1.62.36-.84.72-2.28,1.08-4.32.12-.66.72-1.08,1.38-.96.66.06,1.08.72.96,1.32-.36,2.28-.78,3.9-1.26,4.98-.24.42-.66.72-1.08.72ZM261.66,32.7h-.06c-.66-.06-1.2-.6-1.14-1.26.06-1.44.12-3.06.12-4.74.06-.66.54-1.2,1.2-1.2h.06c.66,0,1.2.54,1.14,1.2,0,1.74-.06,3.36-.12,4.86-.06.66-.6,1.14-1.2,1.14ZM264.18,53.16c-.48,0-.9-.24-1.08-.66-.3-.6-.06-1.32.54-1.62,1.14-.54,2.22-1.44,3.24-2.7.42-.48,1.14-.6,1.68-.18s.6,1.2.18,1.68c-1.2,1.5-2.58,2.64-4.02,3.36-.18.06-.36.12-.54.12ZM271.56,17.7c-.48,0-.9-.24-1.08-.66-.24-.54-.48-.9-.66-1.14-.3-.3-.84-.78-2.16-1.2-.6-.18-.96-.9-.72-1.5.18-.66.84-1.02,1.44-.78l-.36,1.14.42-1.14c1.44.54,2.46,1.14,3.12,1.86.42.42.78,1.02,1.08,1.74.3.6,0,1.32-.6,1.62-.12.06-.3.06-.48.06ZM270.24,46.02c-.12,0-.3,0-.48-.06-.6-.3-.84-1.02-.6-1.62.54-1.26,1.02-2.76,1.38-4.32.18-.66.84-1.08,1.44-.9.66.12,1.08.78.9,1.44-.36,1.74-.9,3.36-1.5,4.74-.24.48-.66.72-1.14.72ZM271.26,7.62c-.42,0-.84-.24-1.02-.66-.3-.6-.06-1.32.48-1.62l4.32-2.16c.6-.3,1.32-.06,1.62.54.3.6.06,1.32-.54,1.62l-4.32,2.16c-.12.12-.36.12-.54.12ZM273.78,15.42c-.42,0-.84-.24-1.08-.66-.72-1.38-1.44-2.82-2.22-4.2-.36-.6-.12-1.32.48-1.62.54-.36,1.26-.12,1.62.48.78,1.38,1.5,2.82,2.28,4.26.3.54.06,1.26-.54,1.62-.18.06-.36.12-.54.12ZM272.52,36.72h-.12c-.66-.06-1.14-.66-1.08-1.32.18-1.44.3-3,.36-4.68,0-.66.54-1.2,1.26-1.14.66,0,1.14.54,1.14,1.2-.06,1.74-.18,3.36-.36,4.92-.06.6-.6,1.02-1.2,1.02ZM272.88,27.18c-.66,0-1.2-.54-1.2-1.2,0-1.5-.06-2.82-.06-3.84-.06-.3-.06-.54-.12-.84-.06-.66.42-1.26,1.08-1.32.66-.06,1.26.42,1.32,1.08.06.3.06.66.06.96.06,1.08.12,2.4.12,3.96,0,.66-.48,1.2-1.14,1.2h-.06ZM275.28,21.66c-.54,0-1.02-.36-1.2-.9-.18-.6.18-1.26.84-1.44l4.62-1.32c.6-.24,1.32.18,1.5.78.18.66-.18,1.32-.84,1.5l-4.62,1.32c-.12.06-.24.06-.3.06ZM277.74,30.42c-.54,0-1.02-.36-1.14-.9-.42-1.5-.84-3.06-1.32-4.62-.18-.6.24-1.26.84-1.44.66-.18,1.32.18,1.5.78.42,1.56.84,3.12,1.26,4.68.18.6-.18,1.26-.84,1.44-.06.06-.18.06-.3.06ZM276.84,16.98c-.42,0-.84-.24-1.08-.66-.3-.6,0-1.32.6-1.62l3.42-1.62c-.24-.12-.42-.3-.54-.54-.72-1.38-1.44-2.82-2.22-4.26-.3-.6-.06-1.32.48-1.62.6-.3,1.32-.06,1.62.48.78,1.5,1.56,2.88,2.22,4.32.24.36.18.72,0,1.08.42.06.78.3.96.66.24.6,0,1.32-.6,1.62l-4.32,2.04c-.18.12-.36.12-.54.12ZM280.14,39.72c-.48,0-1.02-.36-1.14-.96-.36-1.5-.78-3.06-1.2-4.62-.12-.6.24-1.26.9-1.44.66-.18,1.26.18,1.44.84.42,1.56.84,3.12,1.2,4.68.18.66-.24,1.26-.9,1.44-.06,0-.18.06-.3.06ZM280.44,5.76c-.42,0-.84-.24-1.08-.66-.3-.6-.06-1.32.54-1.62l4.32-2.16c.54-.3,1.32-.06,1.56.54.3.6.06,1.32-.48,1.62l-4.32,2.16c-.18.06-.36.12-.54.12ZM283.38,13.68c-.42,0-.84-.24-1.02-.66-.78-1.44-1.56-2.82-2.28-4.2-.3-.6-.12-1.32.48-1.62.6-.3,1.32-.12,1.62.48.78,1.38,1.5,2.76,2.28,4.26.3.54.06,1.32-.48,1.62-.18.06-.42.12-.6.12ZM282.18,42.9c-.54,0-1.02-.36-1.14-.9-.18-.66.24-1.32.9-1.44l4.68-1.02c.66-.12,1.32.24,1.44.9.12.66-.3,1.32-.9,1.44l-4.68,1.02h-.3ZM286.56,22.26c-.48,0-.96-.3-1.14-.84-.24-.78-.48-1.62-.72-2.46-.6.12-1.2-.24-1.38-.84-.18-.6.18-1.26.84-1.5l2.16-.6.36,1.14c.36,1.2.72,2.4,1.08,3.6.18.6-.18,1.26-.84,1.44-.12.06-.24.06-.36.06ZM286.56,15.06c-.42,0-.84-.24-1.08-.66-.3-.6,0-1.32.6-1.62l4.32-2.04c.6-.3,1.32-.06,1.62.54.24.6,0,1.32-.6,1.62l-4.32,2.04c-.18.12-.36.12-.54.12ZM289.68,10.62c-.42,0-.84-.24-1.08-.6-.78-1.56-1.5-3-2.16-4.26-.36-.6-.12-1.32.48-1.62.6-.3,1.32-.12,1.62.48.66,1.32,1.44,2.7,2.22,4.26.3.6.06,1.32-.54,1.62-.12.12-.36.12-.54.12ZM289.2,31.5c-.54,0-1.02-.36-1.2-.84-.36-1.56-.78-3.06-1.26-4.62-.18-.66.18-1.32.84-1.5.66-.18,1.32.18,1.5.84.42,1.56.84,3.12,1.26,4.62.18.66-.24,1.32-.84,1.5h-.3ZM291.48,40.86c-.54,0-1.02-.42-1.14-.96-.36-1.5-.72-3.06-1.14-4.62-.18-.66.24-1.32.9-1.5.6-.12,1.26.24,1.44.9.42,1.56.78,3.18,1.14,4.68.12.66-.24,1.32-.9,1.44-.12.06-.18.06-.3.06Z" fill="#666" stroke-width="0"/>
      <path d="M311.34,55.38c-.48,0-.96-.3-1.14-.84l-1.5-4.56c-.18-.54.18-1.26.78-1.44.66-.18,1.32.12,1.5.78l1.5,4.5c.18.66-.12,1.32-.78,1.5-.12.06-.24.06-.36.06ZM310.32,47.52c-.6,0-1.08-.42-1.2-1.02-.06-.66.36-1.26,1.02-1.38,1.68-.24,3.24-.54,4.56-.9.66-.18,1.32.18,1.5.84.18.6-.24,1.26-.84,1.44-1.44.42-3.06.72-4.86,1.02h-.18ZM314.22,11.28c-.72,0-1.2-.48-1.2-1.2v-4.8c0-.66.48-1.2,1.2-1.2.66,0,1.2.54,1.2,1.2v4.8c0,.72-.54,1.2-1.2,1.2ZM314.22,20.88c-.72,0-1.2-.48-1.2-1.2v-4.8c0-.66.48-1.2,1.2-1.2.66,0,1.2.54,1.2,1.2v4.8c0,.72-.54,1.2-1.2,1.2ZM314.22,30.48c-.72,0-1.2-.48-1.2-1.2v-4.8c0-.66.48-1.2,1.2-1.2.66,0,1.2.54,1.2,1.2v4.8c0,.72-.54,1.2-1.2,1.2ZM314.22,40.08c-.72,0-1.2-.48-1.2-1.2v-4.8c0-.66.48-1.2,1.2-1.2.66,0,1.2.54,1.2,1.2v4.8c0,.72-.54,1.2-1.2,1.2ZM315.06,56.22c-.54,0-1.02-.42-1.14-.96-.18-.66.24-1.32.9-1.44,1.62-.36,3.12-.72,4.5-1.2.66-.18,1.32.12,1.5.78.24.6-.12,1.32-.72,1.5-1.5.48-3.12.9-4.8,1.26-.06.06-.18.06-.24.06ZM320.64,3.3h-4.8c-.72,0-1.2-.48-1.2-1.2,0-.66.48-1.2,1.2-1.2h4.8c.66,0,1.2.54,1.2,1.2,0,.72-.54,1.2-1.2,1.2ZM319.5,44.82c-.42,0-.84-.24-1.08-.6-.3-.6-.12-1.32.48-1.62,1.08-.66,1.98-1.38,2.64-2.28h-2.76c-.72,0-1.2-.48-1.2-1.2,0-.66.48-1.2,1.2-1.2h4.8c.66,0,1.2.54,1.2,1.2,0,.48-.3.84-.66,1.08.06.24,0,.54-.12.78-.9,1.5-2.22,2.7-3.9,3.66-.24.12-.42.18-.6.18ZM324.18,53.16c-.48,0-.9-.24-1.08-.66-.3-.6-.06-1.32.54-1.62,1.38-.66,2.7-1.44,3.84-2.34.54-.36,1.26-.3,1.68.24s.3,1.2-.18,1.62c-1.26.96-2.7,1.86-4.32,2.64-.12.12-.36.12-.48.12ZM329.88,14.46h-6v-5.04h1.68c.66,0,1.2.54,1.2,1.2,0,.42-.24.78-.48.96v.48h3.6c.66,0,1.2.54,1.2,1.2,0,.72-.54,1.2-1.2,1.2ZM327.24,23.58h-3.36v-5.04h4.26c.72,0,1.2.54,1.2,1.2,0,.72-.48,1.2-1.2,1.2h-1.86v.24h.96c.66,0,1.2.54,1.2,1.2,0,.72-.54,1.2-1.2,1.2ZM327.24,32.7h-3.36v-5.04h4.32c.66,0,1.2.54,1.2,1.2,0,.72-.54,1.2-1.2,1.2h-1.92v.24h.96c.66,0,1.2.54,1.2,1.2,0,.72-.54,1.2-1.2,1.2ZM330.24,3.3h-4.8c-.72,0-1.2-.48-1.2-1.2,0-.66.48-1.2,1.2-1.2h4.8c.66,0,1.2.54,1.2,1.2,0,.72-.54,1.2-1.2,1.2ZM335.16,11.82h-4.8c-.72,0-1.2-.48-1.2-1.2,0-.66.48-1.2,1.2-1.2h4.8c.66,0,1.2.54,1.2,1.2,0,.72-.54,1.2-1.2,1.2ZM331.62,47.34c-.24,0-.54-.06-.72-.24-.54-.42-.66-1.2-.24-1.68.9-1.2,1.62-2.52,2.22-3.9.24-.6.9-.9,1.5-.66.66.24.96.96.72,1.56-.66,1.62-1.5,3.12-2.52,4.44-.24.3-.6.48-.96.48ZM336.84,23.58h-4.8c-.72,0-1.2-.48-1.2-1.2,0-.66.48-1.2,1.2-1.2h4.8c.66,0,1.2.54,1.2,1.2,0,.72-.54,1.2-1.2,1.2ZM336.84,32.7h-4.8c-.72,0-1.2-.48-1.2-1.2,0-.66.48-1.2,1.2-1.2h4.8c.66,0,1.2.54,1.2,1.2,0,.72-.54,1.2-1.2,1.2ZM337.74,20.94h-4.8c-.66,0-1.2-.48-1.2-1.2,0-.66.54-1.2,1.2-1.2h4.8c.72,0,1.2.54,1.2,1.2,0,.72-.48,1.2-1.2,1.2ZM337.8,30.06h-4.8c-.72,0-1.2-.48-1.2-1.2,0-.66.48-1.2,1.2-1.2h4.8c.66,0,1.2.54,1.2,1.2,0,.72-.54,1.2-1.2,1.2ZM339.48,14.46h-4.8c-.72,0-1.2-.48-1.2-1.2,0-.66.48-1.2,1.2-1.2h4.8c.66,0,1.2.54,1.2,1.2,0,.72-.54,1.2-1.2,1.2ZM339.84,3.3h-4.8c-.72,0-1.2-.48-1.2-1.2,0-.66.48-1.2,1.2-1.2h4.8c.66,0,1.2.54,1.2,1.2,0,.72-.54,1.2-1.2,1.2ZM337.74,44.1c-.72,0-1.2-.54-1.2-1.2v-2.58c-.6-.06-1.08-.54-1.08-1.2s.54-1.2,1.2-1.2h2.28v4.98c0,.66-.54,1.2-1.2,1.2ZM338.1,53.64c-.48,0-.96-.3-1.14-.78-.12-.3-.18-.54-.24-.84-.12-.6-.18-1.44-.18-2.58v-1.74c0-.66.48-1.2,1.2-1.2.66,0,1.2.54,1.2,1.2v1.74c0,1.14.06,1.8.12,2.1.06.12.06.3.12.48.24.6-.06,1.26-.66,1.5-.18.06-.3.12-.42.12ZM344.76,11.82h-4.8c-.72,0-1.2-.48-1.2-1.2,0-.66.48-1.2,1.2-1.2h4.8c.66,0,1.2.54,1.2,1.2,0,.72-.54,1.2-1.2,1.2ZM346.44,23.58h-4.8c-.72,0-1.2-.48-1.2-1.2,0-.66.48-1.2,1.2-1.2h4.8c.66,0,1.2.54,1.2,1.2,0,.72-.54,1.2-1.2,1.2ZM346.44,32.7h-4.8c-.72,0-1.2-.48-1.2-1.2,0-.66.48-1.2,1.2-1.2h4.8c.66,0,1.2.54,1.2,1.2,0,.72-.54,1.2-1.2,1.2ZM346.8,55.92c-1.62-.06-2.82-.06-3.78-.12-.42-.06-.78-.12-1.14-.12-.66-.06-1.14-.66-1.02-1.32.06-.66.66-1.14,1.32-1.08.3.06.66.06.96.12.9.06,2.16.06,3.72.12.66,0,1.14.54,1.14,1.2s-.54,1.2-1.2,1.2ZM347.34,20.94h-4.8c-.66,0-1.2-.48-1.2-1.2,0-.66.54-1.2,1.2-1.2h4.8c.72,0,1.2.54,1.2,1.2,0,.72-.48,1.2-1.2,1.2ZM347.4,30.06h-4.8c-.72,0-1.2-.48-1.2-1.2,0-.66.48-1.2,1.2-1.2h4.8c.66,0,1.2.54,1.2,1.2,0,.72-.54,1.2-1.2,1.2ZM349.2,14.46h-4.92c-.72,0-1.2-.48-1.2-1.2,0-.66.48-1.2,1.2-1.2h2.52c.06-.6.54-1.08,1.2-1.08s1.2.54,1.2,1.2v2.28ZM349.44,3.3h-4.8c-.72,0-1.2-.48-1.2-1.2,0-.66.48-1.2,1.2-1.2h4.8c.66,0,1.2.54,1.2,1.2,0,.72-.54,1.2-1.2,1.2ZM350.94,47.7h-.6c-1.2,0-1.98-.06-2.46-.6-.36-.42-.48-1.02-.48-2.22-.06-.66.48-1.2,1.14-1.2h.06c.6,0,1.14.48,1.2,1.14v.48h1.14c.42,0,.66,0,.78-.06.66-.18,1.32.18,1.5.84.18.6-.18,1.26-.84,1.44-.42.12-.9.18-1.44.18ZM353.22,43.26h-.06c-.66,0-1.14-.6-1.14-1.26,0-.42,0-.84.06-1.38v-.3h-2.34c-.12.54-.6.96-1.14.96-.72,0-1.2-.54-1.2-1.2v-2.16h5.04c.72,0,1.2.54,1.2,1.2v.36l2.58.3c-.06-.18-.18-.42-.18-.66,0-.66.54-1.2,1.2-1.2h.42v-2.04c0-.66.48-1.2,1.2-1.2.66,0,1.2.54,1.2,1.2v4.44h-2.46c.18.24.24.54.24.84-.12.66-.66,1.14-1.38,1.08l-2.04-.24v.12c0,.6-.54,1.14-1.2,1.14ZM355.02,55.92h-3.42c-.66,0-1.2-.54-1.2-1.2s.54-1.2,1.2-1.2h3.42c.36-.06.84-.06,1.26-.12.72-.06,1.26.42,1.32,1.08.06.66-.42,1.26-1.08,1.32-.54.06-1.02.12-1.5.12ZM358.86,3.48c-.24,0-.48-.06-.66-.18h-3.96c-.72,0-1.2-.48-1.2-1.2,0-.66.48-1.2,1.2-1.2h5.82v1.38c0,.72-.54,1.2-1.2,1.2ZM358.86,13.08c-.72,0-1.2-.48-1.2-1.2v-4.8c0-.66.48-1.2,1.2-1.2.66,0,1.2.54,1.2,1.2v4.8c0,.72-.54,1.2-1.2,1.2ZM358.86,22.68c-.72,0-1.2-.48-1.2-1.2v-4.8c0-.66.48-1.2,1.2-1.2.66,0,1.2.54,1.2,1.2v4.8c0,.72-.54,1.2-1.2,1.2ZM358.86,32.28c-.72,0-1.2-.48-1.2-1.2v-4.8c0-.66.48-1.2,1.2-1.2.66,0,1.2.54,1.2,1.2v4.8c0,.72-.54,1.2-1.2,1.2ZM360.96,54.54c-.3,0-.66-.12-.9-.42-.42-.48-.36-1.26.12-1.68.12-.06.24-.18.36-.3.48-.54.66-.9.72-1.08.06-.3.24-.9.48-2.16.18-.6.78-1.02,1.44-.9s1.08.72.96,1.38c-.24,1.08-.42,1.86-.6,2.4-.18.66-.6,1.32-1.32,1.98-.12.18-.3.36-.48.48-.18.18-.48.3-.78.3ZM363.48,45.6h-.12c-.66-.06-1.14-.6-1.08-1.26,0-.48,0-.96.06-1.5l-1.08-.12c-.66-.06-1.14-.66-1.08-1.32.12-.66.66-1.08,1.32-1.02l3.3.36-.06,1.08c0,1.02-.06,1.92-.12,2.64,0,.66-.54,1.14-1.14,1.14Z" fill="#666" stroke-width="0"/>
      <path d="M372,45.72c-.36,0-.72-.18-.96-.54-.36-.54-.24-1.32.3-1.68l3.96-2.7c.6-.36,1.32-.18,1.68.36.36.54.24,1.26-.3,1.68l-3.96,2.64c-.24.18-.48.24-.72.24ZM375.48,52.98c-.36,0-.72-.18-.96-.48l-2.88-3.78c-.36-.54-.24-1.32.3-1.68.48-.42,1.26-.3,1.68.24l2.82,3.78c.42.54.3,1.32-.24,1.68-.24.18-.48.24-.72.24ZM376.74,26.52c-.66,0-1.2-.54-1.2-1.2v-4.8c0-.66.54-1.2,1.2-1.2s1.2.54,1.2,1.2v4.8c0,.66-.54,1.2-1.2,1.2ZM378.78,18.96c-.66,0-1.2-.54-1.2-1.2s.54-1.2,1.2-1.2c1.56,0,3.18,0,4.74-.06.66-.06,1.26.54,1.26,1.2s-.54,1.2-1.2,1.2c-1.56.06-3.18.06-4.8.06ZM378.84,29.16c-.66,0-1.2-.54-1.2-1.2s.54-1.2,1.2-1.2c1.62,0,3.18-.06,4.74-.12.66-.06,1.26.48,1.26,1.14.06.66-.48,1.2-1.14,1.26-1.56.06-3.18.12-4.86.12ZM378.96,53.1c-.36,0-.72-.18-.96-.54-.42-.54-.24-1.32.3-1.68,1.44-.96,2.76-1.86,3.96-2.64.54-.36,1.32-.24,1.68.3s.24,1.32-.3,1.62c-1.2.84-2.52,1.74-3.96,2.7-.24.12-.48.24-.72.24ZM379.98,40.32c-.42,0-.78-.18-1.02-.54-.36-.54-.24-1.26.36-1.62l3.96-2.7c.54-.42,1.26-.24,1.68.3.36.54.18,1.32-.36,1.68l-3.96,2.7c-.18.12-.42.18-.66.18ZM381.24,12.66h-.24c-.6-.12-1.08-.72-.96-1.38l.72-4.74c.12-.66.72-1.08,1.38-.96.66.06,1.08.72,1.02,1.32l-.78,4.8c-.06.54-.6.96-1.14.96ZM387.36,3.78h-.18c-1.44-.24-2.88-.42-4.32-.66h-.36c-.66-.12-1.08-.66-1.02-1.32l.24-1.26,1.2.18c1.5.24,3.06.42,4.62.66.6.06,1.08.72,1.02,1.32-.12.6-.6,1.08-1.2,1.08ZM389.46,13.8c-.06,0-.12,0-.18-.06-1.56-.18-3.18-.36-4.74-.6-.66-.06-1.14-.66-1.02-1.32.06-.66.66-1.14,1.32-1.02,1.62.18,3.18.42,4.74.6.66.06,1.14.66,1.08,1.32-.12.6-.6,1.08-1.2,1.08ZM386.94,47.76c-.42,0-.78-.18-1.02-.54-.36-.54-.24-1.32.36-1.68,1.8-1.2,3.18-2.1,4.02-2.64.6-.36,1.32-.18,1.68.42.36.54.18,1.32-.42,1.62-.84.54-2.16,1.38-3.96,2.58-.24.18-.48.24-.66.24ZM387.9,34.92c-.36,0-.72-.18-.96-.48-.36-.6-.24-1.32.3-1.68l3.96-2.7c.54-.36,1.32-.24,1.68.3.36.54.24,1.32-.3,1.68l-3.96,2.7c-.24.12-.48.18-.72.18ZM388.38,18.78c-.66,0-1.2-.54-1.2-1.2-.06-.66.48-1.2,1.14-1.2,1.62-.06,3.18-.12,4.8-.24.66,0,1.2.48,1.26,1.14,0,.66-.48,1.2-1.14,1.26-1.62.06-3.24.18-4.8.24h-.06ZM388.44,28.74c-.6,0-1.14-.48-1.2-1.14-.06-.66.42-1.2,1.08-1.26,1.62-.12,3.24-.3,4.74-.48.66-.12,1.26.36,1.32,1.02.12.66-.36,1.26-1.02,1.32-1.56.24-3.18.36-4.8.54h-.12ZM396.9,4.92h-.18c-1.56-.18-3.18-.36-4.74-.54-.66-.06-1.14-.66-1.08-1.32.12-.66.72-1.14,1.38-1.08,1.56.24,3.12.42,4.74.54.66.12,1.14.66,1.08,1.32-.12.66-.6,1.08-1.2,1.08ZM399,14.82h-.12c-1.62-.18-3.18-.3-4.8-.48-.66-.06-1.14-.66-1.08-1.32.06-.66.66-1.14,1.32-1.08,1.62.18,3.18.36,4.8.48.66.06,1.14.66,1.08,1.32-.06.6-.6,1.08-1.2,1.08ZM398.22,46.56c-.54,0-1.02-.42-1.14-.96-.36-1.38-.66-1.86-.78-1.98s-.36-.36-.96-.36c-.66,0-1.2-.54-1.2-1.2s.54-1.2,1.2-1.2c1.38.06,2.28.66,2.7,1.14.6.6,1.02,1.56,1.38,3.06.12.66-.24,1.26-.9,1.44-.12,0-.18.06-.3.06ZM395.88,29.52c-.42,0-.78-.18-1.02-.48-.36-.6-.24-1.32.3-1.68l1.62-1.08c0-.6.42-1.08.96-1.14l2.4-.48v2.1l-.54.48-3.06,2.1c-.24.12-.48.18-.66.18ZM397.98,18.24c-.66,0-1.2-.48-1.2-1.08-.06-.66.42-1.26,1.08-1.32,1.62-.12,3.18-.18,4.8-.36.66-.06,1.2.48,1.26,1.14.06.66-.42,1.2-1.08,1.26-1.62.12-3.18.24-4.8.36h-.06ZM404.34,53.16c-.12,0-.18,0-.3-.06-.9-.24-1.68-.6-2.34-.96-.9-.48-1.68-1.08-2.28-1.8-.48-.48-.42-1.2.06-1.62.48-.48,1.26-.42,1.68.06.48.54,1.02.96,1.68,1.26.54.3,1.2.54,1.86.78.66.18,1.02.84.84,1.5-.18.54-.66.84-1.2.84ZM406.44,5.82h-.12c-1.56-.12-3.18-.24-4.8-.42-.66-.06-1.14-.66-1.08-1.32.06-.66.66-1.14,1.32-1.08,1.62.18,3.18.3,4.74.42.66.06,1.2.6,1.14,1.26-.06.66-.6,1.14-1.2,1.14ZM407.52,17.46c-.6,0-1.14-.48-1.2-1.08,0-.36.06-.66.3-.9-.96-.06-1.98-.12-2.94-.24-.66-.06-1.2-.6-1.14-1.26.06-.66.66-1.14,1.32-1.14,1.62.18,3.18.3,4.74.42.66,0,1.2.6,1.14,1.26,0,.12-.06.24-.06.3.84-.06,1.68-.18,2.46-.24.66-.06,1.26.42,1.38,1.08.06.66-.42,1.2-1.08,1.32-1.62.18-3.18.3-4.8.48h-.12ZM407.7,38.94c-.48,0-.96-.3-1.14-.78-.18-.6-.48-1.02-.9-1.44-.42-.48-.84-.72-1.26-.72h-.78l-.48-.78-.48-.84,1.62-1.26c.54-.42,1.26-.3,1.68.18.18.24.3.54.24.84.42.24.84.54,1.2.9.6.66,1.08,1.44,1.44,2.28.18.6-.12,1.32-.72,1.56-.18.06-.3.06-.42.06ZM408.84,32.34c-.36,0-.72-.18-.96-.48-.42-.54-.3-1.26.24-1.68,1.32-.96,2.64-1.92,3.9-2.82.54-.42,1.32-.24,1.68.3.36.54.24,1.26-.3,1.68-1.26.84-2.52,1.8-3.84,2.76-.24.18-.48.24-.72.24ZM411.54,54.06c-.9,0-1.74-.06-2.52-.12-.66-.06-1.2-.6-1.14-1.26.06-.66.66-1.14,1.26-1.14.78.06,1.56.12,2.4.12.78,0,1.56-.06,2.28-.06.66-.06,1.26.48,1.26,1.14.06.66-.48,1.2-1.14,1.26-.78,0-1.56.06-2.4.06ZM413.94,43.86c-2.46,0-4.02-.24-4.92-.84-.6-.36-.72-1.08-.42-1.62.36-.6,1.14-.72,1.68-.36.18.06.96.42,3.66.42h.36c.66,0,1.2.54,1.26,1.2,0,.66-.54,1.2-1.2,1.2h-.42ZM409.8,11.76h-.12c-.66-.06-1.14-.66-1.08-1.32l.42-4.74c.06-.66.66-1.14,1.32-1.08.66.06,1.14.6,1.08,1.26l-.42,4.8c-.06.6-.6,1.08-1.2,1.08ZM414.18,25.68c-.6,0-1.14-.42-1.2-1.02l-.6-4.8c-.12-.6.36-1.26,1.02-1.32.66-.06,1.26.36,1.32,1.02l.66,4.8c.06.66-.42,1.26-1.08,1.32h-.12ZM418.68,53.46c-.6,0-1.08-.42-1.2-.96-.12-.66.3-1.32.96-1.38.66-.12,1.32-.24,1.98-.42l-.12-.6c-.06-.6.42-1.2,1.08-1.26s1.26.36,1.32,1.02l.36,2.64-1.02.3c-1.02.24-2.1.48-3.18.66h-.18ZM420.9,46.44c-.6,0-1.08-.42-1.14-1.02l-.3-2.1h-.18c-.66.12-1.26-.3-1.38-.96-.06-.66.36-1.26,1.02-1.38.42-.06.9-.18,1.38-.24l1.26-.24.54,4.62c.12.66-.36,1.26-1.02,1.32h-.18Z" fill="#666" stroke-width="0"/>
      <path d="M429.9,45.36h-.36l-2.22-.66.48-1.2c.42-1.2.84-2.4,1.26-3.54.24-.66.9-.96,1.56-.72.6.18.96.9.72,1.5-.3.78-.6,1.62-.84,2.4.48.24.72.84.54,1.38-.12.54-.6.84-1.14.84ZM431.34,14.46c-.66,0-1.2-.54-1.2-1.2v-4.74h2.4c.66,0,1.2.48,1.2,1.14,0,.72-.54,1.26-1.2,1.26v2.34c0,.66-.54,1.2-1.2,1.2ZM430.14,20.52v-2.46c0-.66.54-1.2,1.2-1.2s1.2.54,1.2,1.2v.06c.84-.06,1.62-.06,2.34-.06.66,0,1.2.54,1.2,1.2s-.48,1.2-1.14,1.2c-1.02,0-2.22.06-3.6.06h-1.2ZM431.76,37.02c-.12,0-.24,0-.36-.06-.66-.24-.96-.9-.78-1.5.54-1.56,1.02-3.06,1.5-4.56.24-.66.9-.96,1.5-.78.66.18,1.02.84.78,1.5-.48,1.5-.96,3.06-1.5,4.56-.18.54-.6.84-1.14.84ZM439.14,48.12c-.12,0-.24-.06-.36-.06l-4.62-1.38c-.6-.18-1.02-.84-.78-1.5.18-.6.84-.96,1.44-.78l4.62,1.32c.66.24,1.02.9.84,1.5-.18.54-.66.9-1.14.9ZM434.7,27.9c-.12,0-.24-.06-.36-.06-.66-.18-1.02-.9-.78-1.5.42-1.56.9-3.06,1.32-4.62.18-.6.84-1.02,1.44-.84.66.18,1.02.84.84,1.5-.42,1.56-.84,3.06-1.32,4.62-.18.54-.66.9-1.14.9ZM437.34,10.86c-.66,0-1.2-.54-1.2-1.2s.48-1.2,1.14-1.2c.36,0,.66-.06.9-.06.18-.66.3-1.32.48-1.98.12-.66.78-1.02,1.38-.9.66.12,1.08.78.96,1.44-.24.9-.42,1.86-.66,2.88l-.18.9-.9.06c-.54,0-1.2,0-1.92.06ZM440.22,45.12c-.18,0-.3,0-.42-.06-.66-.24-.96-.9-.72-1.56.54-1.5,1.08-3,1.56-4.5.24-.6.9-.96,1.5-.72.12,0,.18.06.3.12.18-.84.42-1.62.72-2.34-.06,0-.18-.06-.24-.06-.66-.24-1.02-.9-.78-1.5.48-1.56.96-3.06,1.38-4.56.18-.66.84-1.02,1.5-.84.66.18,1.02.84.84,1.5-.48,1.5-.96,3-1.44,4.5.18.06.3.06.48.12.6.3.84,1.02.54,1.62-.54,1.2-.84,2.64-.9,4.2-.06.66-.6,1.14-1.26,1.14-.42,0-.78-.24-.96-.6-.36.96-.66,1.86-1.02,2.76-.12.48-.6.78-1.08.78ZM440.76,3.18h-.18c-.66-.12-1.08-.78-.96-1.44l.3-1.74,5.22.54c.66.12,1.08.72,1.02,1.38s-.66,1.08-1.32,1.02l-3-.36c-.24.36-.66.6-1.08.6ZM446.52,50.88c-.3,0-.6-.12-.84-.36-1.32-1.2-2.28-2.7-2.82-4.44-.24-.6.12-1.32.72-1.5.6-.24,1.32.12,1.5.72.48,1.38,1.26,2.58,2.28,3.54.48.48.48,1.2,0,1.68-.24.24-.54.36-.84.36ZM445.98,26.82h-.3c-.66-.18-1.02-.84-.84-1.5.42-1.56.84-3.06,1.2-4.62.18-.66.84-1.02,1.5-.84.6.12,1.02.78.84,1.44-.36,1.56-.78,3.12-1.2,4.68-.18.48-.66.84-1.2.84ZM447.3,33.78c-.36,0-.66-.12-.9-.42-.42-.54-.36-1.26.12-1.68,1.32-1.08,2.88-1.92,4.62-2.46.66-.24,1.32.12,1.5.78.24.6-.12,1.32-.78,1.5-1.44.48-2.7,1.14-3.78,1.98-.24.24-.48.3-.78.3ZM450.78,6.78c-.06,0-.18-.06-.24-.06-.66-.12-1.08-.78-.96-1.44.18-.66.3-1.2.42-1.74l-.36-.06c-.66-.06-1.14-.66-1.08-1.32.06-.66.66-1.14,1.32-1.02l2.94.3-.24,1.26c-.12.78-.36,1.8-.66,3.12-.12.54-.6.96-1.14.96ZM450.18,19.62c-.6,0-1.14-.48-1.2-1.08-.06-.66.42-1.26,1.08-1.32,1.62-.18,3.18-.3,4.74-.48.66-.12,1.26.36,1.32,1.02.12.66-.36,1.26-1.02,1.32-1.56.18-3.18.36-4.8.54h-.12ZM455.22,54.54h-.12c-1.86-.24-3.54-.6-4.98-1.2-.66-.24-.96-.96-.72-1.56.3-.6.96-.9,1.56-.66,1.32.48,2.76.84,4.38,1.02.66.06,1.14.66,1.08,1.32-.12.6-.6,1.08-1.2,1.08ZM451.56,9.84c-.6,0-1.14-.48-1.2-1.08-.06-.66.42-1.26,1.08-1.32,1.56-.18,3.12-.36,4.74-.54.66-.12,1.26.36,1.38,1.02.06.66-.42,1.26-1.08,1.32-1.62.24-3.24.42-4.8.6h-.12ZM457.14,45.72c-1.2,0-2.16-.42-3-1.14-.42-.42-.78-.96-.96-1.5-.24-.66.06-1.32.72-1.56.6-.24,1.32.12,1.5.72.12.24.24.42.42.54.36.36.78.54,1.32.54.36,0,.72-.06,1.02-.12.6-.06,1.26.36,1.32,1.02.12.66-.3,1.26-.96,1.38-.42.06-.9.12-1.38.12ZM460.68,42.06q-.06,0-.12-.06c-.66,0-1.14-.6-1.08-1.26v-.72c-.78-.24-1.56-.3-2.34-.3-.3,0-.54,0-.72.06-.6.24-1.32-.06-1.56-.72-.18-.6.12-1.26.72-1.5.48-.18,1.02-.24,1.56-.24,1.32,0,2.64.24,3.96.72l.84.3v.84c0,.6-.06,1.2-.06,1.74-.06.6-.6,1.14-1.2,1.14ZM461.64,31.02l-1.38-.18c-1.38-.18-2.7-.18-3.96-.12-.66.06-1.2-.48-1.26-1.14-.06-.66.48-1.2,1.14-1.26,1.02-.06,2.16-.06,3.24.06.24-.3.6-.48.96-.48.6,0,1.2.48,1.2,1.14l.06,1.98ZM458.22,17.28c-.6,0-1.14-.48-1.2-1.14l-.3-4.74c-.06-.66.48-1.26,1.14-1.32.66,0,1.2.48,1.26,1.14l.3,4.8c.06.66-.48,1.26-1.14,1.26h-.06ZM459.96,54.54c-.6,0-1.14-.48-1.14-1.08-.06-.66.42-1.26,1.08-1.32,1.68-.12,3.12-.42,4.38-.84.6-.24,1.32.06,1.5.66.24.66-.06,1.32-.66,1.56-1.44.54-3.12.9-5.04,1.02h-.12ZM460.44,25.44h-.06c-.66,0-1.14-.6-1.14-1.26.06-1.14.18-2.28.3-3.24l.12-1.02h2.7c.66,0,1.2.54,1.2,1.2s-.54,1.2-1.2,1.2h-.54c-.06.6-.12,1.26-.18,1.98,0,.66-.54,1.14-1.2,1.14ZM463.8,17.94c-.12,0-.24,0-.36-.06-.48-.12-1.02-.3-1.56-.42l-1.2-.36,1.98-5.76c.18-.6.9-.96,1.5-.72.6.24.96.9.72,1.5l-1.14,3.36c.12,0,.24.06.36.06.66.18,1.02.84.84,1.5-.18.54-.66.9-1.14.9ZM469.62,9.06c-.12,0-.24-.06-.36-.06-1.02-.3-2.1-.6-3.12-.9-.3.3-.78.42-1.2.24-.6-.18-.96-.9-.72-1.5l.54-1.56,1.08.24c1.32.36,2.7.78,4.08,1.14.66.18,1.02.84.84,1.5-.18.54-.66.9-1.14.9ZM471.48,22.74h-.18c-.3-.06-.54-.24-.78-.42h-3.36c-.66,0-1.2-.54-1.2-1.2s.54-1.2,1.2-1.2h3c-.72-.24-1.44-.48-2.1-.72-.66-.18-1.02-.84-.84-1.5.24-.6.9-.96,1.5-.78,1.56.48,3.06.96,4.62,1.5.6.18.96.9.78,1.5-.24.6-.78.9-1.32.84l-.12.9c-.12.6-.6,1.08-1.2,1.08ZM468.6,50.94c-.24,0-.54-.06-.78-.3-.48-.42-.54-1.14-.12-1.62.9-.96,1.5-2.28,1.92-3.78l.48-1.74,1.44,1.14c.3.24.66.54.96.84.54.42.6,1.14.18,1.68-.36.36-.84.48-1.26.36-.48,1.2-1.14,2.22-1.86,3-.24.3-.6.42-.96.42ZM471.24,32.28c-.66,0-1.14-.48-1.2-1.14,0-1.32-.06-2.58-.06-3.72v-1.14c0-.66.6-1.2,1.26-1.2.66.06,1.14.6,1.14,1.26v1.08c0,1.14.06,2.34.06,3.66.06.66-.48,1.2-1.14,1.2h-.06ZM477.12,38.94c-.24,0-.54-.12-.72-.3-1.38-1.02-2.64-1.98-3.84-2.76-.54-.36-.66-1.14-.3-1.68.36-.54,1.14-.66,1.68-.3,1.2.84,2.58,1.8,3.9,2.88.54.42.66,1.14.24,1.68-.24.3-.6.48-.96.48ZM478.74,11.94c-.12,0-.24,0-.36-.06-1.56-.54-3.06-1.02-4.56-1.5-.6-.18-.96-.9-.78-1.5.24-.66.9-.96,1.5-.78,1.56.48,3.06.96,4.62,1.5.6.24.96.9.72,1.56-.18.48-.66.78-1.14.78ZM476.4,52.2l-.9-.9c-.36-.3-.66-.6-.96-.9-.54-.48-.54-1.14-.06-1.62.42-.48,1.2-.54,1.68-.06,0,0,.06,0,.06.06l1.38-1.68c.48-.54,1.2-.6,1.74-.18.48.48.54,1.2.12,1.74l-3.06,3.54ZM481.2,23.88l-1.14-.48c-.96-.36-1.98-.78-3-1.14-.6-.24-.96-.9-.72-1.5.24-.66.96-.96,1.56-.72.66.24,1.26.48,1.92.72l.12-.36c.24-.6.9-.9,1.56-.66.6.18.9.9.66,1.5l-.96,2.64ZM481.62,45.42c-.24,0-.54-.12-.78-.3-.48-.42-.54-1.2-.12-1.68l.54-.66c-.42-.36-.84-.72-1.26-1.08-.48-.42-.54-1.2-.12-1.68.48-.48,1.2-.54,1.74-.12.66.6,1.38,1.26,2.1,1.92l.84.78-1.98,2.4c-.24.24-.6.42-.96.42ZM482.76,17.52c-.18,0-.3,0-.42-.06-.66-.24-.96-.9-.72-1.56l.96-2.52c-.42-.3-.66-.9-.42-1.44.24-.6.9-.9,1.5-.66l1.98.72-1.8,4.74c-.18.48-.6.78-1.08.78Z" fill="#666" stroke-width="0"/>
      <path d="M492.78,32.58c-.6,0-1.14-.42-1.2-1.02-.18-1.56-.24-3.24-.24-4.92-.06-.66.48-1.2,1.14-1.2h.06c.66,0,1.14.48,1.2,1.14,0,1.68.06,3.24.24,4.68.06.66-.42,1.26-1.08,1.32h-.12ZM492.6,23.04h-.06c-.66-.06-1.14-.6-1.14-1.26.06-1.62.18-3.24.3-4.86.06-.66.66-1.14,1.32-1.08.66.06,1.14.66,1.08,1.32-.12,1.56-.24,3.12-.3,4.74-.06.6-.54,1.14-1.2,1.14ZM493.5,13.44h-.18c-.66-.06-1.14-.66-1.02-1.32.24-1.62.48-3.24.78-4.8.12-.66.78-1.08,1.44-.96.6.12,1.02.72.9,1.38-.3,1.56-.54,3.12-.78,4.68-.06.6-.6,1.02-1.14,1.02ZM495,41.88c-.42,0-.9-.24-1.08-.72-.6-1.44-1.14-3.06-1.56-4.74-.12-.66.3-1.32.9-1.44.66-.18,1.32.24,1.44.9.36,1.56.84,3.06,1.44,4.38.24.6-.06,1.32-.66,1.56-.12.06-.3.06-.48.06ZM500.7,49.56c-.3,0-.54-.12-.78-.3-1.26-.96-2.46-2.22-3.54-3.66-.36-.54-.24-1.32.3-1.68.54-.42,1.26-.3,1.68.24.9,1.32,1.98,2.4,3.06,3.24.54.42.6,1.14.18,1.68-.24.3-.6.48-.9.48ZM503.64,9.24h-.12l-4.74-.42c-.66,0-1.2-.6-1.14-1.26s.66-1.14,1.32-1.14l4.8.42c.66.06,1.14.6,1.08,1.26-.06.66-.6,1.14-1.2,1.14ZM503.94,26.4h-.06c-.66,0-1.14-.54-1.14-1.2,0-1.62.06-3.24.18-4.86,0-.66.6-1.2,1.26-1.14.66.06,1.14.6,1.08,1.26-.06,1.56-.12,3.18-.12,4.74,0,.66-.54,1.2-1.2,1.2ZM504.84,35.94c-.54,0-1.02-.36-1.14-.96-.12-.3-.18-.66-.3-1.08-.24-1.14-.42-2.46-.54-3.84-.06-.66.48-1.2,1.14-1.26s1.2.42,1.26,1.08c.12,1.26.3,2.46.54,3.54.06.36.12.66.18,1.02.18.6-.18,1.26-.84,1.44-.12,0-.18.06-.3.06ZM504.54,16.8h-.18c-.66-.06-1.08-.66-1.02-1.32.18-1.62.42-3.24.72-4.8.06-.66.72-1.14,1.38-1.02.66.12,1.08.72.96,1.38-.24,1.56-.48,3.18-.66,4.74-.12.6-.6,1.02-1.2,1.02ZM508.74,52.26c-1.5,0-2.88-.24-4.2-.6-.6-.18-.96-.9-.78-1.5.18-.6.84-.96,1.5-.78,1.08.36,2.22.48,3.48.48h.78c.66-.06,1.26.36,1.32,1.02.06.66-.42,1.26-1.08,1.32-.36,0-.66.06-1.02.06ZM508.14,40.86c-.78,0-1.5-.3-2.16-.96-.48-.48-.48-1.26,0-1.74.48-.42,1.2-.42,1.68.06.24.18.36.24.48.24,0,0,.42-.06,1.2-1.5.3-.6,1.02-.84,1.62-.54.54.36.78,1.08.48,1.62-.36.72-1.44,2.82-3.3,2.82ZM512.1,34.2h-.36c-.66-.24-1.02-.9-.78-1.5.36-1.32.78-2.88,1.14-4.56.06-.18.12-.36.24-.48-.06-.18-.06-.36,0-.48.12-.66.78-1.08,1.38-.96l4.74.96c.66.12,1.08.72.96,1.38-.18.66-.78,1.08-1.44.96l-3.54-.72c-.42,1.68-.78,3.24-1.2,4.56-.18.54-.66.84-1.14.84ZM514.14,50.64c-.42,0-.78-.18-1.02-.54-.36-.48-.18-1.26.36-1.62,1.14-.66,2.22-1.68,3.18-2.94.42-.54,1.14-.66,1.68-.24.54.42.6,1.14.24,1.68-1.14,1.5-2.46,2.7-3.78,3.48-.24.12-.42.18-.66.18ZM520.08,43.32c-.18,0-.36,0-.54-.12-.6-.24-.84-.96-.54-1.56.6-1.32,1.2-2.76,1.74-4.32.18-.66.9-.96,1.5-.78.66.24.96.9.78,1.56-.6,1.68-1.2,3.18-1.86,4.56-.18.42-.66.66-1.08.66ZM523.2,34.32c-.06,0-.18-.06-.3-.06-.6-.18-1.02-.84-.84-1.44.18-.78.36-1.56.54-2.4-.6-.18-.96-.78-.84-1.38.12-.66.72-1.08,1.38-.96l2.28.48-.24,1.14c-.24,1.32-.54,2.52-.78,3.66-.18.54-.66.96-1.2.96ZM523.14,12.36c-.54,0-1.02-.3-1.2-.84-.18-.6.18-1.26.84-1.5l4.56-1.38c.66-.18,1.32.18,1.5.78.18.66-.18,1.32-.78,1.5l-4.62,1.44h-.3ZM526.38,19.74c-.48,0-.96-.3-1.14-.78-.54-1.44-1.14-2.88-1.86-4.32-.24-.66,0-1.32.6-1.62.6-.3,1.32,0,1.62.6.66,1.5,1.32,3,1.86,4.5.3.6-.06,1.32-.66,1.56-.12,0-.3.06-.42.06ZM529.32,28.86c-.54,0-1.02-.36-1.2-.9-.06-.3-.12-.6-.18-.9-.36-1.2-.72-2.4-1.08-3.66-.24-.6.12-1.26.78-1.5.6-.18,1.32.18,1.5.78.42,1.26.78,2.52,1.08,3.78.12.3.18.6.24.9.18.66-.24,1.32-.84,1.5h-.3ZM531.06,38.28c-.6,0-1.14-.42-1.2-1.02-.18-1.62-.48-3.18-.72-4.68-.12-.66.3-1.26.96-1.38s1.26.3,1.38.96c.3,1.5.54,3.12.78,4.8.06.66-.36,1.26-1.02,1.32h-.18ZM530.7,45.72l-.06-1.14c-.12-.9-.18-1.74-.24-2.58-.06-.66.42-1.26,1.08-1.32.66-.06,1.26.42,1.32,1.08.06.48.06.96.12,1.44h1.02c.6-.06,1.2.42,1.26,1.08,0,.66-.48,1.26-1.14,1.26l-3.36.18ZM535.2,11.88c-.42,0-.9-.24-1.08-.66-.24-.66-.54-1.26-.84-1.86l-.66.18c-.6.18-1.26-.18-1.5-.78-.18-.66.18-1.32.84-1.5l2.58-.84.48.96c.42.96.9,1.92,1.32,2.82.24.6,0,1.32-.6,1.62-.18.06-.36.06-.54.06ZM538.68,20.88c-.48,0-.96-.36-1.14-.84-.48-1.5-1.02-3-1.56-4.44-.24-.66.06-1.32.66-1.56.6-.24,1.32.06,1.56.66.6,1.5,1.14,3.06,1.62,4.56.18.66-.12,1.32-.78,1.56-.12,0-.24.06-.36.06ZM538.8,45.3c-.66,0-1.2-.48-1.2-1.14-.06-.66.48-1.2,1.14-1.26l3-.18c.18-.36.6-.66,1.02-.66.66-.06,1.26.42,1.32,1.08l.12,1.86-5.34.3h-.06ZM541.08,30.18c-.6,0-1.08-.42-1.2-1.02-.3-1.5-.6-2.94-.96-4.32l-.06-.24c-.18-.66.24-1.32.84-1.5.66-.18,1.32.24,1.5.84l.06.36c.36,1.38.66,2.88.96,4.44.12.66-.3,1.26-.96,1.38-.06,0-.12.06-.18.06ZM542.46,39.66c-.6,0-1.14-.48-1.2-1.08-.18-1.62-.36-3.24-.6-4.74-.06-.66.36-1.26,1.02-1.32.66-.12,1.26.36,1.38,1.02.18,1.5.42,3.12.6,4.8.06.66-.42,1.26-1.08,1.32h-.12Z" fill="#666" stroke-width="0"/>
      <path d="M9.87,73.68h5.88c.66,0,1.2.54,1.2,1.2s-.54,1.2-1.2,1.2h-4.14c-.18.12-.36.18-.54.18-.66,0-1.2-.54-1.2-1.2v-1.38ZM9.87,79.86c0-.66.54-1.2,1.2-1.2s1.2.54,1.2,1.2v4.8c0,.66-.54,1.2-1.2,1.2s-1.2-.54-1.2-1.2v-4.8ZM9.87,89.46c0-.66.54-1.2,1.2-1.2s1.2.54,1.2,1.2v4.8c0,.66-.54,1.2-1.2,1.2s-1.2-.54-1.2-1.2v-4.8ZM9.87,103.26v-4.2c0-.66.54-1.2,1.2-1.2s1.2.54,1.2,1.2v4.74c0,.66-.54,1.2-1.2,1.26-.66,0-1.2-.54-1.2-1.2v-.6ZM13.83,112.8c.24.6-.06,1.32-.66,1.56-.6.24-1.32-.06-1.56-.66-.6-1.5-1.02-3.12-1.32-4.86-.12-.66.36-1.32.96-1.38.66-.12,1.32.3,1.38.96.3,1.62.72,3.06,1.2,4.38ZM16.05,116.64c.3.36.66.72.96,1.08.72.72,1.5,1.32,2.28,1.86.6.36.72,1.14.36,1.68-.36.54-1.08.66-1.68.36-.96-.66-1.86-1.38-2.64-2.22-.42-.42-.78-.84-1.14-1.26-.42-.54-.36-1.26.18-1.68.54-.42,1.26-.36,1.68.18ZM20.55,73.68h5.04v2.16c0,.66-.54,1.2-1.2,1.2-.54,0-1.02-.42-1.14-.96h-2.7c-.66,0-1.2-.54-1.2-1.2s.54-1.2,1.2-1.2ZM23.37,121.5c1.32.36,2.82.66,4.44.84.66.06,1.14.66,1.08,1.32-.12.66-.66,1.14-1.32,1.08-1.8-.18-3.42-.54-4.98-1.02-.6-.18-.96-.84-.78-1.5.24-.6.9-.9,1.56-.72ZM23.19,85.44v-4.8c0-.66.54-1.2,1.2-1.2s1.2.54,1.2,1.2v4.8c0,.66-.54,1.2-1.2,1.2s-1.2-.54-1.2-1.2ZM23.19,90.24c0-.66.54-1.2,1.2-1.2s1.2.54,1.2,1.2v4.8c0,.66-.54,1.2-1.2,1.2s-1.2-.54-1.2-1.2v-4.8ZM23.19,99.84c0-.66.54-1.2,1.2-1.2s1.2.54,1.2,1.2v4.8c0,.66-.54,1.2-1.2,1.2s-1.2-.54-1.2-1.2v-4.8ZM27.87,113.88c-1.08-.42-2.04-1.14-2.76-2.04-.48-.6-.84-1.32-1.14-2.04-.18-.66.12-1.32.72-1.56.66-.24,1.32.12,1.56.72.18.54.48,1.02.72,1.38.48.6,1.02,1.02,1.74,1.26.66.24.96.96.72,1.56-.24.6-.9.96-1.56.72ZM37.47,124.2c-1.5.36-3.18.54-4.92.66-.66,0-1.26-.48-1.26-1.14-.06-.66.48-1.26,1.14-1.26,1.62-.06,3.12-.3,4.5-.6.66-.12,1.32.24,1.44.9.18.6-.24,1.26-.9,1.44ZM31.89,113.22c-.18-.6.18-1.26.84-1.44,1.02-.24,1.68-.72,2.28-1.44.18-.24.36-.54.54-.84.24-.6.96-.9,1.56-.6.6.3.84,1.02.6,1.62-.24.48-.54.9-.84,1.32-.84,1.14-2.1,1.92-3.54,2.28-.66.18-1.26-.24-1.44-.9ZM38.79,105.36c-.06.66-.6,1.2-1.26,1.14-.66,0-1.2-.6-1.14-1.26v-4.74c0-.66.54-1.2,1.2-1.2s1.2.54,1.2,1.2v4.86ZM40.77,76.08h-1.98v.42c0,.66-.54,1.2-1.2,1.2s-1.2-.54-1.2-1.2v-2.82h4.38c.66,0,1.2.54,1.2,1.2s-.54,1.2-1.2,1.2ZM38.79,86.1c0,.66-.54,1.2-1.2,1.2s-1.2-.54-1.2-1.2v-4.8c0-.66.54-1.2,1.2-1.2s1.2.54,1.2,1.2v4.8ZM38.79,95.7c0,.66-.54,1.2-1.2,1.2s-1.2-.54-1.2-1.2v-4.8c0-.66.54-1.2,1.2-1.2s1.2.54,1.2,1.2v4.8ZM47.79,117.78c-.42.6-.9,1.14-1.38,1.62-1.2,1.26-2.58,2.28-4.14,3-.6.3-1.32.12-1.62-.48-.3-.54-.12-1.26.48-1.56,1.38-.72,2.52-1.56,3.54-2.64.48-.42.84-.9,1.2-1.38.42-.54,1.2-.66,1.68-.24.54.42.66,1.14.24,1.68ZM50.37,76.08h-4.8c-.66,0-1.2-.54-1.2-1.2s.54-1.2,1.2-1.2h4.8c.66,0,1.2.54,1.2,1.2s-.54,1.2-1.2,1.2ZM51.51,108.42c-.3,1.74-.66,3.36-1.26,4.86-.24.6-.9.9-1.56.72-.6-.24-.9-.96-.66-1.56.48-1.32.84-2.82,1.08-4.38.12-.66.72-1.14,1.38-1.02.66.06,1.14.72,1.02,1.38ZM51.87,79.44v4.8c0,.66-.54,1.2-1.2,1.2s-1.2-.54-1.2-1.2v-4.8c0-.66.54-1.2,1.2-1.2s1.2.54,1.2,1.2ZM51.87,89.04v4.8c0,.66-.54,1.2-1.2,1.2s-1.2-.54-1.2-1.2v-4.8c0-.66.54-1.2,1.2-1.2s1.2.54,1.2,1.2ZM51.87,98.64v4.8c0,.66-.54,1.2-1.2,1.2s-1.2-.54-1.2-1.2v-4.8c0-.66.54-1.2,1.2-1.2s1.2.54,1.2,1.2Z" fill="#666" stroke-width="0"/>
      <path d="M64.47,73.68h4.92c.66,0,1.2.54,1.2,1.2s-.54,1.2-1.2,1.2h-2.58c-.06.66-.54,1.08-1.14,1.08-.66,0-1.2-.48-1.2-1.2v-2.28ZM64.47,80.76c0-.66.54-1.2,1.2-1.2s1.2.54,1.2,1.2v4.8c0,.72-.54,1.2-1.2,1.2s-1.2-.48-1.2-1.2v-4.8ZM64.47,90.36c0-.66.54-1.2,1.2-1.2s1.2.54,1.2,1.2v4.8c0,.72-.54,1.2-1.2,1.2s-1.2-.48-1.2-1.2v-4.8ZM64.47,99.96c0-.66.54-1.2,1.2-1.2s1.2.54,1.2,1.2v4.8c0,.72-.54,1.2-1.2,1.2s-1.2-.48-1.2-1.2v-4.8ZM64.47,109.56c0-.66.54-1.2,1.2-1.2s1.2.54,1.2,1.2v4.8c0,.72-.54,1.2-1.2,1.2s-1.2-.48-1.2-1.2v-4.8ZM64.47,119.16c0-.66.54-1.2,1.2-1.2s1.2.54,1.2,1.2v2.76c.48.12.9.54.9,1.14,0,.66-.54,1.2-1.2,1.2h-2.1v-5.1ZM71.37,121.86h4.8c.66,0,1.2.48,1.2,1.2,0,.66-.54,1.2-1.2,1.2h-4.8c-.66,0-1.2-.54-1.2-1.2,0-.72.54-1.2,1.2-1.2ZM74.19,73.68h4.8c.66,0,1.2.54,1.2,1.2s-.54,1.2-1.2,1.2h-4.8c-.66,0-1.2-.54-1.2-1.2s.54-1.2,1.2-1.2ZM82.17,85.98h-2.46c0,.66-.54,1.2-1.2,1.2s-1.2-.54-1.2-1.2v-2.4h4.86c.84,0,1.62.06,2.34.18.66.06,1.14.66,1.08,1.32-.06.66-.66,1.14-1.32,1.02-.66-.06-1.32-.12-2.1-.12ZM79.71,95.58c0,.66-.54,1.2-1.2,1.2s-1.2-.54-1.2-1.2v-4.8c0-.66.54-1.2,1.2-1.2s1.2.54,1.2,1.2v4.8ZM79.71,106.26v4.8c0,.66-.54,1.2-1.2,1.2s-1.2-.54-1.2-1.2v-4.8c0-.66.54-1.2,1.2-1.2s1.2.54,1.2,1.2ZM77.31,120.66v-4.8c0-.66.54-1.2,1.2-1.2s1.2.54,1.2,1.2v4.8c0,.66-.54,1.2-1.2,1.2s-1.2-.54-1.2-1.2ZM84.69,109.56c-.36-.66-.72-1.14-1.02-1.44-.42-.36-.9-.54-1.62-.66-.66-.06-1.14-.66-1.08-1.32.06-.66.66-1.14,1.32-1.02,1.14.12,2.16.48,3,1.2.6.6,1.14,1.32,1.56,2.22.3.6,0,1.32-.6,1.62-.6.3-1.32,0-1.56-.6ZM87.45,96.54c-1.44.9-3.18,1.32-5.22,1.32-.66,0-1.2-.48-1.2-1.14,0-.72.54-1.26,1.2-1.26,1.68,0,2.94-.36,3.9-.96.6-.36,1.32-.18,1.68.36s.18,1.32-.36,1.68ZM88.41,76.5c-1.44-.18-3-.3-4.68-.36-.66,0-1.2-.6-1.14-1.26,0-.66.54-1.14,1.26-1.14,1.74.06,3.36.18,4.86.42.66.06,1.14.66,1.02,1.32-.06.66-.66,1.14-1.32,1.02ZM89.19,119.34c-.66.18-1.32-.18-1.5-.78l-1.5-4.56c-.24-.66.12-1.32.78-1.56.6-.18,1.26.18,1.5.78l1.5,4.56c.18.66-.18,1.32-.78,1.56ZM89.13,92.76c-.66-.06-1.08-.72-.96-1.32,0-.36.06-.66.06-1.02,0-1.32-.24-2.22-.66-2.82-.36-.54-.24-1.26.36-1.62.54-.36,1.26-.24,1.62.3.78,1.14,1.08,2.52,1.08,4.14,0,.48-.06.9-.12,1.38-.12.66-.72,1.08-1.38.96ZM94.83,124.26h-5.28l-.3-.84-.12-.36c-.18-.66.18-1.26.78-1.44.48-.18.9-.06,1.2.24h3.72c.66,0,1.2.48,1.2,1.2,0,.66-.54,1.2-1.2,1.2ZM92.13,76.02c.18-.66.84-1.02,1.5-.84,1.74.6,3.3,1.32,4.62,2.22.54.36.66,1.14.3,1.68-.36.54-1.14.66-1.68.3-1.02-.78-2.4-1.38-3.96-1.86-.66-.24-1.02-.9-.78-1.5ZM92.55,102.24c-.24-.6.06-1.32.72-1.56,1.38-.6,2.58-1.32,3.72-2.28.48-.48,1.26-.42,1.68.12.42.48.36,1.26-.12,1.68-1.32,1.14-2.76,2.04-4.44,2.7-.6.24-1.26-.06-1.56-.66ZM97.77,109.5c-.66-1.68-1.38-3-2.04-3.9h-.06c-.36-.54-.3-1.32.24-1.68.54-.42,1.26-.3,1.68.18l.06.06c.84,1.14,1.62,2.64,2.34,4.5.24.6-.06,1.26-.66,1.56-.6.24-1.32-.06-1.56-.72ZM104.91,122.16l.72,2.1h-6c-.66,0-1.2-.54-1.2-1.2,0-.72.54-1.2,1.2-1.2h3.24c.12-.12.3-.3.48-.36.66-.24,1.32.06,1.56.66ZM99.39,114c-.24-.66.12-1.32.72-1.56.6-.18,1.32.12,1.56.72l1.62,4.56c.24.6-.12,1.26-.72,1.5-.66.24-1.32-.06-1.56-.72l-1.62-4.5ZM101.85,81.24c.9,1.44,1.44,3.12,1.74,4.92.12.66-.36,1.26-.96,1.38-.66.12-1.32-.36-1.38-1.02-.24-1.56-.72-2.88-1.44-4.08-.36-.54-.18-1.26.42-1.62.54-.36,1.32-.18,1.62.42ZM103.65,91.32c-.3,1.74-.9,3.36-1.8,4.92-.36.54-1.08.72-1.62.42-.6-.36-.78-1.08-.42-1.68.72-1.32,1.26-2.64,1.44-4.02.12-.66.72-1.14,1.38-1.02s1.14.72,1.02,1.38Z" fill="#666" stroke-width="0"/>
      <path d="M115.77,74.94c0-.66.54-1.2,1.2-1.2s1.2.54,1.2,1.2v4.8c0,.66-.54,1.2-1.2,1.2s-1.2-.54-1.2-1.2v-4.8ZM115.77,84.54c0-.66.54-1.2,1.2-1.2s1.2.54,1.2,1.2v4.8c0,.66-.54,1.2-1.2,1.2s-1.2-.54-1.2-1.2v-4.8ZM115.77,94.14c0-.66.54-1.2,1.2-1.2s1.2.54,1.2,1.2v4.8c0,.66-.54,1.2-1.2,1.2s-1.2-.54-1.2-1.2v-4.8ZM115.77,103.74c0-.66.54-1.2,1.2-1.2s1.2.54,1.2,1.2v4.8c0,.66-.54,1.2-1.2,1.2s-1.2-.54-1.2-1.2v-4.8ZM115.77,113.34c0-.66.54-1.2,1.2-1.2s1.2.54,1.2,1.2v4.8c0,.66-.54,1.2-1.2,1.2s-1.2-.54-1.2-1.2v-4.8ZM115.77,122.88c0-.66.54-1.14,1.2-1.14.18,0,.36.06.54.12h4.08c.66,0,1.2.48,1.2,1.2,0,.66-.54,1.2-1.2,1.2h-5.82v-1.38ZM120.51,74.88c0-.66.54-1.2,1.2-1.2h4.8c.66,0,1.2.54,1.2,1.2s-.54,1.2-1.2,1.2h-4.8c-.66,0-1.2-.54-1.2-1.2ZM125.19,123.06c0-.72.54-1.2,1.2-1.2h4.8c.66,0,1.2.48,1.2,1.2,0,.66-.54,1.2-1.2,1.2h-4.8c-.66,0-1.2-.54-1.2-1.2ZM131.67,79.68c0,.66-.54,1.2-1.2,1.2s-1.2-.54-1.2-1.2v-4.8c0-.66.54-1.2,1.2-1.2s1.2.54,1.2,1.2v4.8ZM131.67,89.28c0,.66-.54,1.2-1.2,1.2s-1.2-.54-1.2-1.2v-4.8c0-.66.54-1.2,1.2-1.2s1.2.54,1.2,1.2v4.8ZM131.67,94.08v4.8c0,.66-.54,1.2-1.2,1.2s-1.2-.54-1.2-1.2v-4.8c0-.66.54-1.2,1.2-1.2s1.2.54,1.2,1.2ZM129.27,108.48v-4.8c0-.66.54-1.2,1.2-1.2s1.2.54,1.2,1.2v4.8c0,.72-.54,1.2-1.2,1.2s-1.2-.48-1.2-1.2ZM130.41,112.2c0-.66.54-1.2,1.2-1.2h4.8c.66,0,1.2.54,1.2,1.2s-.54,1.2-1.2,1.2h-4.8c-.66,0-1.2-.54-1.2-1.2ZM140.79,124.26h-4.8c-.66,0-1.2-.54-1.2-1.2,0-.72.54-1.2,1.2-1.2h4.8c.66,0,1.2.48,1.2,1.2,0,.66-.54,1.2-1.2,1.2ZM146.01,113.4h-4.8c-.66,0-1.2-.54-1.2-1.2s.54-1.2,1.2-1.2h4.8c.66,0,1.2.54,1.2,1.2s-.54,1.2-1.2,1.2ZM151.17,124.26h-5.58c-.66,0-1.2-.54-1.2-1.2,0-.72.54-1.2,1.2-1.2h3.48c.18-.24.54-.42.9-.42.66,0,1.2.48,1.2,1.14v1.68ZM151.17,117.84c0,.66-.54,1.2-1.2,1.2s-1.2-.54-1.2-1.2v-4.8c0-.66.54-1.2,1.2-1.2s1.2.54,1.2,1.2v4.8Z" fill="#666" stroke-width="0"/>
      <path d="M167.01,123.12c-.36,0-.72-.12-.96-.42l-2.88-3.66.72-.78c.3-.24.54-.54.84-.78.42-.48,1.2-.48,1.68-.06.48.48.48,1.26,0,1.74,0,0,0,.06-.06.06l1.62,2.04c.42.54.3,1.2-.18,1.62-.24.18-.48.24-.78.24ZM170.31,94.98h-4.8c-.66,0-1.2-.48-1.2-1.2,0-.66.54-1.2,1.2-1.2h1.98l-3.48-1.5c-.6-.3-.9-.96-.66-1.56.3-.66,1.02-.9,1.62-.66l4.38,1.92c.6.3.9,1.02.6,1.62,0,.06-.06.12-.12.18h.48c.72,0,1.2.54,1.2,1.2,0,.72-.48,1.2-1.2,1.2ZM167.55,104.1h-3.66v-6c0-.66.48-1.2,1.2-1.2.66,0,1.2.54,1.2,1.2v3.6h1.26c.66,0,1.2.54,1.2,1.2,0,.72-.54,1.2-1.2,1.2ZM165.09,86.94c-.06,0-.18-.06-.3-.06-.66-.18-1.02-.84-.84-1.5.42-1.44.78-3,1.14-4.56.12-.66.78-1.08,1.44-.96.66.18,1.02.78.9,1.44-.36,1.62-.78,3.24-1.14,4.74-.18.54-.66.9-1.2.9ZM167.19,77.52h-.18c-.66-.12-1.08-.72-.96-1.38.24-1.56.48-3.12.72-4.68.12-.66.72-1.14,1.38-1.02.66.06,1.14.66,1.02,1.32-.24,1.68-.48,3.24-.78,4.8-.12.6-.6.96-1.2.96ZM168.69,115.86c-.3,0-.54-.06-.72-.24-.54-.42-.66-1.14-.3-1.68.96-1.26,1.8-2.58,2.46-3.9.3-.6,1.02-.84,1.62-.54s.84,1.02.54,1.62c-.78,1.44-1.68,2.88-2.64,4.26-.24.3-.6.48-.96.48ZM171.09,129l-2.04-2.52c-.42-.54-.3-1.32.18-1.68.54-.42,1.32-.36,1.68.18l.48.6c.36-.36.72-.66,1.02-1.02.48-.48,1.26-.48,1.74,0,.48.48.48,1.2,0,1.68-.66.72-1.38,1.38-2.16,1.98l-.9.78ZM174.45,94.32c-.66,0-1.2-.48-1.2-1.2v-.72c-.24.42-.78.6-1.32.48-.6-.18-.96-.9-.78-1.5.48-1.5.9-3.06,1.32-4.56.18-.66.84-1.02,1.44-.9.6.18.96.72.9,1.26.48.18.84.6.84,1.14v4.8c0,.72-.48,1.2-1.2,1.2ZM173.01,107.34c-.12,0-.24,0-.36-.06-.6-.18-.96-.84-.78-1.5.18-.54.36-1.08.48-1.68-.66,0-1.2-.48-1.2-1.2,0-.66.54-1.2,1.2-1.2h2.88l-.24,1.44c-.18,1.14-.48,2.28-.84,3.36-.12.54-.6.84-1.14.84ZM176.07,75.24h-.12c-.66-.06-1.14-.66-1.02-1.32l-2.52-.42c-.66-.12-1.08-.78-.96-1.44.06-.6.72-1.08,1.38-.96l4.68.84-.12,1.08c0,.3-.06.72-.12,1.2-.06.6-.6,1.02-1.2,1.02ZM176.37,122.94c-.24,0-.48-.06-.72-.24-.48-.36-.6-1.08-.24-1.62.9-1.2,1.74-2.52,2.52-3.9.3-.6,1.02-.78,1.62-.48.54.3.78,1.02.48,1.62-.84,1.5-1.74,2.88-2.7,4.14-.18.3-.6.48-.96.48ZM182.61,77.94h-4.8c-.66,0-1.2-.48-1.2-1.2,0-.66.54-1.2,1.2-1.2h4.8c.66,0,1.2.54,1.2,1.2,0,.72-.54,1.2-1.2,1.2ZM185.91,126.84c-.66,0-1.2-.54-1.2-1.2v-4.08c-.06.24-.24.36-.48.48-.54.36-1.32.12-1.62-.36l-2.4-4.14c-.3-.6-.12-1.32.42-1.68.6-.3,1.32-.12,1.68.42l1.68,3c.3.42.48.84.72,1.2,0,.06.06.12.06.18.12-.54.6-.96,1.14-.96.72,0,1.2.54,1.2,1.2v4.74c0,.66-.48,1.2-1.2,1.2ZM187.95,104.64c-.36,0-.78-.18-.96-.54h-2.1c-.24.3-.6.42-1.02.36-.66-.06-1.14-.72-1.02-1.32v-.24l.06-1.14,6.24-.06v1.74c0,.66-.48,1.2-1.2,1.2ZM187.95,89.46c-.66,0-1.2-.54-1.2-1.2v-1.5h-.72v1.38c0,.66-.54,1.2-1.2,1.2-.72,0-1.2-.54-1.2-1.2v-3.78h3.42c.3,0,.6.12.78.3h2.58c.66,0,1.2.54,1.2,1.2,0,.72-.54,1.2-1.2,1.2h-1.26v1.2c0,.66-.48,1.2-1.2,1.2ZM189.15,94.98h-5.52v-2.04c0-.66.48-1.2,1.2-1.2.54,0,.96.36,1.14.84h.9c.18-.42.6-.72,1.08-.72.72,0,1.2.54,1.2,1.2v1.92ZM191.85,118.5c-.24,0-.54-.06-.72-.24-.18.18-.48.24-.78.24h-4.8l3.36-3.9c.3-.36.72-.48,1.08-.42-.12-.42-.18-.84-.3-1.26-.06-.24,0-.54.06-.78-.06.12-.18.18-.3.3-.54.3-1.26.18-1.62-.42-.9-1.32-1.74-2.7-2.58-4.02-.36-.54-.24-1.26.3-1.62.6-.36,1.32-.24,1.68.3.9,1.38,1.74,2.7,2.64,4.08.18.36.24.78.06,1.14.18-.24.36-.36.66-.42.66-.18,1.26.24,1.44.9.36,1.5.72,3.12,1.02,4.74.12.6-.3,1.26-.96,1.38h-.24ZM186.51,77.1c-.66,0-1.2-.54-1.2-1.2v-2.7h4.56c.66,0,1.2.54,1.2,1.2,0,.72-.54,1.2-1.2,1.2h-2.16v.3c0,.66-.48,1.2-1.2,1.2ZM194.31,84.42h-4.8c-.66,0-1.2-.48-1.2-1.2,0-.66.54-1.2,1.2-1.2h4.8c.66,0,1.2.54,1.2,1.2,0,.72-.54,1.2-1.2,1.2ZM190.29,109.56c-.54,0-1.02-.36-1.14-.9-.12-.36,0-.78.24-1.08-.48-.12-.84-.6-.84-1.14,0-.66.54-1.2,1.2-1.2h4.8c.6,0,1.08.42,1.2.96.12.18.24.36.3.54.18.66-.18,1.32-.84,1.5l-4.62,1.26c-.06.06-.18.06-.3.06ZM195.09,127.32h-4.8c-.66,0-1.2-.54-1.2-1.2,0-.72.54-1.2,1.2-1.2h4.8c.66,0,1.2.48,1.2,1.2,0,.66-.54,1.2-1.2,1.2ZM199.47,75.6h-4.8c-.66,0-1.2-.48-1.2-1.2,0-.66.54-1.2,1.2-1.2h4.8c.66,0,1.2.54,1.2,1.2,0,.72-.54,1.2-1.2,1.2ZM200.01,87.06h-4.8c-.66,0-1.2-.48-1.2-1.2,0-.66.54-1.2,1.2-1.2h4.8c.66,0,1.2.54,1.2,1.2,0,.72-.54,1.2-1.2,1.2ZM197.43,95.4c-.72,0-1.2-.48-1.2-1.2v-1.62h5.52c.72,0,1.2.54,1.2,1.2,0,.72-.48,1.2-1.2,1.2h-3.42c-.24.3-.54.42-.9.42ZM202.23,99.72h-4.8c-.72,0-1.2-.48-1.2-1.2,0-.66.48-1.2,1.2-1.2h4.8c.66,0,1.2.54,1.2,1.2,0,.72-.54,1.2-1.2,1.2ZM203.91,84.42h-4.8c-.66,0-1.2-.48-1.2-1.2,0-.66.54-1.2,1.2-1.2h4.8c.66,0,1.2.54,1.2,1.2,0,.72-.54,1.2-1.2,1.2ZM200.61,112.56c-.54,0-1.02-.36-1.2-.96-.3-1.5-.72-3-1.2-4.56-.18-.66.24-1.32.84-1.5.66-.18,1.32.18,1.5.84.42,1.56.84,3.18,1.2,4.68.18.66-.24,1.32-.9,1.44-.06.06-.18.06-.24.06ZM204.69,127.32h-4.8c-.66,0-1.2-.54-1.2-1.2,0-.72.54-1.2,1.2-1.2h4.8c.66,0,1.2.48,1.2,1.2,0,.66-.54,1.2-1.2,1.2ZM204.87,118.5h-4.14l-.12-.96c-.06-.42-.18-.84-.24-1.26-.12-.66.36-1.32.96-1.38.66-.12,1.32.3,1.44.96v.24h.36c.42-1.26.78-2.46,1.14-3.72.18-.6.84-.96,1.44-.78.66.18,1.02.84.84,1.44-.42,1.5-.9,3.06-1.38,4.68l-.3.78ZM206.61,109.32c-.06,0-.18-.06-.24-.06-.66-.18-1.08-.78-.9-1.44v-.18h-1.62c-.66,0-1.2-.48-1.2-1.2,0-.18.06-.36.12-.54l-2.34-.66h11.7c.66,0,1.2.54,1.2,1.2,0,.72-.54,1.2-1.2,1.2h-.12c-.3.42-.78.6-1.32.48l-2.64-.72c-.12.3-.18.66-.24.96-.12.54-.66.96-1.2.96ZM209.07,75.6h-4.8c-.66,0-1.2-.48-1.2-1.2,0-.66.54-1.2,1.2-1.2h4.8c.66,0,1.2.54,1.2,1.2,0,.72-.54,1.2-1.2,1.2ZM209.61,87.06h-4.8c-.66,0-1.2-.48-1.2-1.2,0-.66.54-1.2,1.2-1.2h4.8c.66,0,1.2.54,1.2,1.2,0,.72-.54,1.2-1.2,1.2ZM206.79,99.54c-.66,0-1.2-.54-1.2-1.2v-3.84c-.12-.18-.24-.42-.24-.72,0-.66.54-1.2,1.2-1.2h1.44v5.76c0,.66-.48,1.2-1.2,1.2ZM213.51,84.42h-4.8c-.66,0-1.2-.48-1.2-1.2,0-.66.54-1.2,1.2-1.2h4.8c.66,0,1.2.54,1.2,1.2,0,.72-.54,1.2-1.2,1.2ZM214.29,127.32h-4.8c-.66,0-1.2-.54-1.2-1.2,0-.72.54-1.2,1.2-1.2h4.8c.66,0,1.2.48,1.2,1.2,0,.66-.54,1.2-1.2,1.2ZM218.49,118.5h-6l.66-1.98c.18-.6.84-.96,1.5-.78.24.06.42.24.54.36h3.3c.66,0,1.2.54,1.2,1.2,0,.72-.54,1.2-1.2,1.2ZM218.67,75.6h-4.8c-.66,0-1.2-.48-1.2-1.2,0-.66.54-1.2,1.2-1.2h4.8c.66,0,1.2.54,1.2,1.2,0,.72-.54,1.2-1.2,1.2ZM217.35,88.92c-.66,0-1.2-.54-1.2-1.2v-.66h-1.74c-.66,0-1.2-.48-1.2-1.2,0-.66.54-1.2,1.2-1.2h4.14v3.06c0,.66-.48,1.2-1.2,1.2ZM215.61,113.46h-.3c-.66-.18-1.02-.84-.84-1.5.24-.9.48-1.8.66-2.64-.54-.24-.78-.84-.6-1.38.12-.6.78-1.02,1.38-.84-.12-.18-.18-.42-.18-.66,0-.36.18-.66.42-.9v-3.42c0-.66.54-1.2,1.2-1.2.72,0,1.2.54,1.2,1.2v5.52h-.6l-.24,1.14c-.24,1.14-.6,2.46-.96,3.78-.12.54-.6.9-1.14.9ZM217.35,98.52c-.66,0-1.2-.54-1.2-1.2v-4.8c0-.66.54-1.2,1.2-1.2.72,0,1.2.54,1.2,1.2v4.8c0,.66-.48,1.2-1.2,1.2ZM220.05,84.42h-1.74c-.66,0-1.2-.48-1.2-1.2,0-.42.24-.78.54-.96v-3.24c0-.66.54-1.2,1.2-1.2.72,0,1.2.54,1.2,1.2v5.4ZM220.35,127.32h-1.2c-.66,0-1.2-.54-1.2-1.2v-4.68c0-.66.54-1.2,1.2-1.2.72,0,1.2.54,1.2,1.2v5.88Z" fill="#666" stroke-width="0"/>
      <path d="M242.01,128.52h-2.46v-2.46l-5.94-1.02c-.12,0-.24-.06-.3-.12-.06.06-.12.06-.24,0-.66-.06-1.14-.66-1.02-1.32.18-1.56.3-3.12.48-4.68.06-.66.66-1.14,1.32-1.08.66.06,1.14.66,1.08,1.32-.12,1.2-.24,2.4-.42,3.6l4.02.66c.06,0,.12,0,.24.06.3.06.6.24.78.54v-.24c0-.66.48-1.2,1.2-1.2.66,0,1.2.54,1.2,1.2v2.34h.06c.72,0,1.2.48,1.2,1.2,0,.66-.48,1.2-1.2,1.2ZM233.73,98.58c-.6,0-1.14-.48-1.14-1.14l-.06-1.2,5.88-.36c.66-.06,1.2.42,1.26,1.08.06.66-.48,1.26-1.14,1.26l-4.38.3c-.12.06-.24.06-.36.06h-.06ZM232.89,107.16l-.18-4.92c0-.66.54-1.2,1.2-1.2s1.2.48,1.2,1.14l.12,2.4c.6,0,1.14.48,1.2,1.14,0,.66-.48,1.2-1.14,1.26l-2.4.18ZM234.15,115.44h-.12c-.66-.06-1.14-.66-1.08-1.32.12-1.56.24-3.18.36-4.74.06-.66.66-1.14,1.32-1.14.66.06,1.14.66,1.08,1.32-.12,1.56-.24,3.18-.36,4.8-.06.6-.6,1.08-1.2,1.08ZM234.27,86.76c-.12,0-.3-.06-.42-.12-.6-.18-.96-.9-.72-1.5l1.62-4.5c.24-.66.9-.96,1.5-.78.3.12.54.36.72.6-.12-.42,0-.9.36-1.2.24-.18.42-.24.66-.3.36-.78.72-1.62,1.02-2.46.24-.6.9-.9,1.56-.66.6.24.9.9.66,1.56-.48,1.26-1.02,2.52-1.56,3.84l-.78,1.74-1.74-2.04c-.06-.06-.06-.18-.12-.24.06.24.06.48,0,.72l-1.62,4.5c-.18.54-.66.84-1.14.84ZM238.29,94.44c-.36,0-.66-.12-.9-.42-1.14-1.38-2.16-2.58-3.06-3.66-.48-.48-.42-1.26.12-1.68.48-.42,1.26-.36,1.68.12.9,1.08,1.92,2.28,3.12,3.72.42.48.3,1.26-.18,1.68-.24.18-.48.24-.78.24ZM239.79,111.54h-.06c-.66-.06-1.2-.6-1.14-1.26.06-.42.06-.84.06-1.26l-1.14-.06c-.66,0-1.14-.6-1.14-1.26.06-.66.66-1.14,1.26-1.14l1.92.12v-.12c-.42-.18-.72-.6-.72-1.02-.06-.66.42-1.26,1.08-1.32l2.04-.12v5.34c0,.6-.42,1.08-1.02,1.2-.12.54-.6.9-1.14.9ZM239.01,121.14h-.12c-.66-.12-1.14-.66-1.08-1.32.18-1.62.3-3.18.42-4.8.06-.66.66-1.14,1.32-1.08.18-.48.6-.9,1.2-.9.66,0,1.2.54,1.2,1.2v4.8c0,.66-.54,1.2-1.2,1.2-.24,0-.42,0-.54-.12-.12.6-.6,1.02-1.2,1.02ZM246.27,74.82c-.12,0-.24,0-.36-.06l-4.5-1.26.3-1.08-1.14-.42.36-1.14,5.64,1.62c.66.18,1.02.84.84,1.5-.18.48-.66.84-1.14.84ZM244.53,89.7l-1.08-1.02c-.06-.06-.18-.18-.42-.48-.3-.3-.48-.54-.6-.84l-.3-.54.3-.54c.3-.6.6-1.26.9-1.86.3-.6,1.02-.84,1.62-.54.6.24.84.96.54,1.56v.06s.06,0,.06.06c.6.3.78,1.02.48,1.62-.24.42-.48.84-.72,1.26l-.78,1.26ZM247.29,83.58c-.18,0-.36-.06-.54-.12-.6-.36-.84-1.08-.48-1.68-.12-.06-.18-.06-.3-.12-.6-.24-.9-.96-.6-1.56.6-1.44,1.26-2.88,1.86-4.38.24-.6.96-.9,1.56-.66.66.24.9.96.66,1.56-.06.18-.12.36-.24.54l.96.42c.66.24.96.9.66,1.56-.12.36-.42.6-.78.66-.6,1.14-1.14,2.16-1.68,3.18-.24.36-.66.6-1.08.6ZM251.01,128.52h-4.2c-.66,0-1.2-.54-1.2-1.2,0-.72.54-1.2,1.2-1.2h1.8v-.6c0-.66.54-1.2,1.2-1.2.72,0,1.2.54,1.2,1.2v3ZM247.53,97.74c-.6,0-1.14-.48-1.2-1.14,0-.66.48-1.26,1.14-1.26l1.38-.12c-.06-.24-.12-.48-.18-.78,0-.06-.06-.12-.06-.24-.06,0-.18-.06-.24-.06-.48-.3-.66-.9-.48-1.44h-.06.06c0-.06.06-.18.12-.24l1.32-2.28c.96-1.56,1.68-2.82,2.22-3.72.3-.54,1.02-.72,1.62-.42.42.24.66.72.6,1.2.54.12.96.6.96,1.14v1.86h5.52l-.96,2.16c-.24.6-.96.9-1.56.6-.18-.06-.36-.18-.42-.36h-.96c.24.9.48,1.92.84,3.18.12.66-.24,1.32-.9,1.44-.6.18-1.26-.18-1.44-.84-.54-2.16-.96-3.72-1.2-4.68l-.12-.54-2.94.78v.24c.06.12.12.48.42,1.62.24.96.42,1.68.54,2.22l.3,1.38-4.2.3h-.12ZM257.01,127.8c-.66,0-1.2-.48-1.2-1.2v-3.66l-4.38.24c-.66.06-1.26-.42-1.26-1.08v-.24c-.72.18-1.56-.36-1.56-1.14v-4.8c0-.6.48-1.08,1.08-1.14,0-.66-.06-1.38-.06-2.04-.06-.18,0-.3,0-.42-.54-.06-1.02-.6-1.02-1.2v-4.8c0-.66.54-1.2,1.2-1.2.72,0,1.2.54,1.2,1.2v.06l.36-.06-.18-.6c-.18-.66.12-1.32.78-1.5.6-.24,1.32.12,1.5.78l1.08,3.42-3.12.3c-.12.12-.24.18-.42.24v2.52c.54.06.96.54,1.02,1.14.06,1.74.12,3.36.18,4.8,0,.66-.48,1.2-1.14,1.26h-.06v2.22c.12,0,.18-.06.24-.06l3.66-.18c-.06-1.26-.12-2.58-.18-3.96-.06-.66.42-1.2,1.08-1.26v-2.4h-.12c-.66.06-1.26-.42-1.26-1.08l-.18-2.1.18-.3c.36-.54.84-1.38,1.56-2.64.3-.6,1.08-.78,1.62-.48.6.36.78,1.08.48,1.62-.6,1.08-1.08,1.86-1.38,2.4l.06.66c.72-.18,1.44.42,1.44,1.14v4.8c0,.66-.42,1.14-1.02,1.2.06.84.06,1.68.12,2.46.54.12.9.6.9,1.14v4.74c0,.72-.48,1.2-1.2,1.2ZM253.53,80.64c-.72,0-1.2-.54-1.2-1.2v-4.5h2.7c.66,0,1.2.54,1.2,1.2s-.54,1.2-1.2,1.2h-.3v2.1c0,.66-.54,1.2-1.2,1.2ZM264.63,77.34h-4.8c-.66,0-1.2-.54-1.2-1.2s.54-1.2,1.2-1.2h4.8c.66,0,1.2.54,1.2,1.2s-.54,1.2-1.2,1.2ZM271.23,128.52h-4.8c-.12,0-.18-.06-.24-.06v.06h-5.04c-.66,0-1.2-.54-1.2-1.2,0-.72.54-1.2,1.2-1.2h2.64c.06-.6.6-1.02,1.2-1.02s1.08.42,1.14,1.02h5.1c.66,0,1.2.48,1.2,1.2,0,.66-.54,1.2-1.2,1.2ZM267.03,95.82c-.72,0-1.2-.54-1.2-1.2v-.6c-.48-.3-.66-.9-.48-1.38.18-.54.36-1.02.48-1.56l.54-1.74-4.62-1.2v-1.32c0-.66.48-1.2,1.2-1.2.42,0,.78.24,1.02.6l2.64.72c.18-.06.36-.06.54-.06l.42-1.32h-2.28c-.72,0-1.2-.54-1.2-1.2s.48-1.2,1.2-1.2h4.8c.66,0,1.2.54,1.2,1.2,0,.36-.18.72-.42.9h3.18c-.24-.18-.36-.54-.36-.9,0-.66.48-1.2,1.2-1.2h6v3.18c0,.66-.54,1.2-1.2,1.2-.72,0-1.2-.54-1.2-1.2v-.78h-2.7c.3.24.42.54.42.9,0,.66-.54,1.2-1.2,1.2h-4.8c-.66,0-1.2-.54-1.2-1.2,0-.36.18-.66.42-.9h-1.2v9.06c0,.66-.54,1.2-1.2,1.2ZM266.43,104.52c-.66,0-1.14-.42-1.2-1.02-.72.18-1.44-.42-1.44-1.14v-4.8c0-.72.48-1.2,1.2-1.2.6,0,1.08.42,1.14,1.02.72-.18,1.5.42,1.5,1.14v4.8c0,.72-.54,1.2-1.2,1.2ZM266.43,114.12c-.66,0-1.14-.42-1.2-1.02-.72.18-1.44-.42-1.44-1.14v-4.8c0-.72.48-1.2,1.2-1.2.6,0,1.08.42,1.14,1.02.72-.18,1.5.42,1.5,1.14v4.8c0,.72-.54,1.2-1.2,1.2ZM266.43,123.72c-.66,0-1.14-.48-1.2-1.08-.72.18-1.44-.42-1.44-1.08v-4.8c0-.72.48-1.2,1.2-1.2.6,0,1.08.42,1.14,1.02.72-.18,1.5.42,1.5,1.14v4.8c0,.66-.54,1.2-1.2,1.2ZM265.89,73.8c-.72,0-1.2-.54-1.2-1.2v-2.34h4.86c.66,0,1.2.54,1.2,1.2s-.54,1.2-1.2,1.2h-2.52c0,.66-.54,1.14-1.14,1.14ZM272.37,99.12h-1.8c-.66,0-1.2-.54-1.2-1.2s.54-1.2,1.2-1.2h.06c.06-.18.12-.42.18-.72-.36-.18-.6-.54-.6-1.02,0-.66.54-1.2,1.2-1.2h2.4l-.36,1.5c-.3,1.2-.54,2.22-.78,3l-.3.84ZM276.75,75.12c-.72,0-1.2-.54-1.2-1.2v-1.26h-1.2c-.66,0-1.2-.54-1.2-1.2s.54-1.2,1.2-1.2h3.6v3.66c0,.66-.54,1.2-1.2,1.2ZM279.69,109.98h-5.94v-1.62c0-.66.48-1.2,1.2-1.2.36,0,.66.18.9.42h1.44v-.84h-.36c-.72,0-1.2-.54-1.2-1.2s.48-1.2,1.2-1.2h2.76v5.64ZM279.69,119.7h-5.94v-5.64h1.92c.66,0,1.2.54,1.2,1.2,0,.54-.3.96-.72,1.14v.9l1.14-.06c0-.66.48-1.2,1.2-1.2.66,0,1.2.54,1.2,1.2v2.46ZM274.95,127.44c-.72,0-1.2-.54-1.2-1.2v-1.92h5.94v1.74c0,.66-.54,1.2-1.2,1.2-.42,0-.84-.24-1.02-.54h-1.44c-.18.42-.6.72-1.08.72ZM284.07,77.34h-4.8c-.66,0-1.2-.54-1.2-1.2s.54-1.2,1.2-1.2h4.8c.66,0,1.2.54,1.2,1.2s-.54,1.2-1.2,1.2ZM284.13,99.12h-4.86l.72-2.88c.18-.6.78-1.02,1.44-.84.6.12,1.02.72.9,1.32h1.8c.72,0,1.2.54,1.2,1.2s-.48,1.2-1.2,1.2ZM286.83,128.52h-4.8c-.72,0-1.2-.54-1.2-1.2,0-.72.48-1.2,1.2-1.2h4.8c.66,0,1.2.48,1.2,1.2,0,.66-.54,1.2-1.2,1.2ZM288.81,96.18h-4.08c-.66,0-1.2-.54-1.2-1.2s.54-1.2,1.2-1.2h1.68v-.72c0-.66.48-1.2,1.2-1.2.66,0,1.2.54,1.2,1.2v3.12ZM287.61,105.3c-.72,0-1.2-.54-1.2-1.2v-4.8c0-.66.48-1.2,1.2-1.2.66,0,1.2.54,1.2,1.2v4.8c0,.66-.54,1.2-1.2,1.2ZM287.61,114.9c-.72,0-1.2-.54-1.2-1.2v-4.8c0-.66.48-1.2,1.2-1.2.66,0,1.2.54,1.2,1.2v4.8c0,.66-.54,1.2-1.2,1.2ZM287.61,124.5c-.72,0-1.2-.54-1.2-1.2v-4.8c0-.66.48-1.2,1.2-1.2.66,0,1.2.54,1.2,1.2v4.8c0,.66-.54,1.2-1.2,1.2ZM289.41,81.66c-.72,0-1.2-.54-1.2-1.2v-3.3c-.36-.24-.54-.6-.54-1.02,0-.66.54-1.2,1.2-1.2h1.74v5.52c0,.66-.54,1.2-1.2,1.2ZM289.41,91.26c-.72,0-1.2-.54-1.2-1.2v-4.8c0-.66.48-1.2,1.2-1.2.66,0,1.2.54,1.2,1.2v4.8c0,.66-.54,1.2-1.2,1.2Z" fill="#666" stroke-width="0"/>
      <path d="M301.35,95.88c-.66,0-1.2-.54-1.2-1.2v-4.8c0-.66.54-1.2,1.2-1.2s1.2.54,1.2,1.2v4.8c0,.66-.54,1.2-1.2,1.2ZM306.33,86.46h-4.8c-.66,0-1.2-.48-1.2-1.2,0-.66.54-1.2,1.2-1.2h4.8c.66,0,1.2.54,1.2,1.2,0,.72-.54,1.2-1.2,1.2ZM310.41,96.36h-4.8c-.66,0-1.2-.48-1.2-1.2,0-.66.54-1.2,1.2-1.2h4.8c.66,0,1.2.54,1.2,1.2,0,.72-.54,1.2-1.2,1.2ZM310.65,85.98c-.66,0-1.2-.54-1.2-1.2v-4.8c0-.66.54-1.2,1.2-1.2s1.2.54,1.2,1.2v4.8c0,.66-.54,1.2-1.2,1.2ZM310.65,105.78c-.66,0-1.2-.54-1.2-1.2v-4.8c0-.66.54-1.2,1.2-1.2s1.2.54,1.2,1.2v4.8c0,.66-.54,1.2-1.2,1.2ZM315.93,76.86h-4.8c-.66,0-1.2-.48-1.2-1.2,0-.66.54-1.2,1.2-1.2h4.8c.66,0,1.2.54,1.2,1.2,0,.72-.54,1.2-1.2,1.2ZM314.55,120.84c-.54,0-1.08-.36-1.2-.9l-1.26-5.7,1.38-.12c1.62-.18,3.24-.36,4.62-.66.66-.12,1.32.36,1.44,1.02.06.66-.36,1.26-1.02,1.38-1.08.18-2.22.36-3.48.48l.66,3.06c.18.6-.24,1.26-.9,1.44h-.24ZM319.11,106.86h-4.8c-.66,0-1.2-.48-1.2-1.2,0-.66.54-1.2,1.2-1.2h4.8c.66,0,1.2.54,1.2,1.2,0,.72-.54,1.2-1.2,1.2ZM314.79,126.12l-.36-1.56c-.12-.66.24-1.32.9-1.44.48-.12.96.06,1.26.42,1.08-.06,2.16-.18,3.18-.36.66-.06,1.26.36,1.32,1.02.12.66-.36,1.26-1.02,1.38-1.32.18-2.76.36-4.26.48l-1.02.06ZM321.45,81c-.66,0-1.2-.54-1.2-1.2v-3c-.42-.24-.72-.66-.72-1.14,0-.66.54-1.2,1.2-1.2h1.92v5.34c0,.66-.54,1.2-1.2,1.2ZM325.53,86.46h-5.28v-1.86c0-.66.54-1.2,1.2-1.2.48,0,.84.3,1.08.66h3c.66,0,1.2.54,1.2,1.2,0,.72-.54,1.2-1.2,1.2ZM321.45,104.4c-.66,0-1.2-.54-1.2-1.2v-4.8c0-.66.54-1.2,1.2-1.2s1.2.54,1.2,1.2v4.8c0,.66-.54,1.2-1.2,1.2ZM323.01,114.78c-.54,0-1.02-.36-1.14-.84-.24-.66.12-1.32.78-1.5,1.62-.54,3-1.14,4.08-1.8.6-.36,1.32-.18,1.68.36.3.54.18,1.32-.42,1.68-1.26.78-2.82,1.44-4.62,2.04-.12,0-.24.06-.36.06ZM327.81,96.36h-4.8c-.66,0-1.2-.48-1.2-1.2,0-.66.54-1.2,1.2-1.2h4.8c.66,0,1.2.54,1.2,1.2,0,.72-.54,1.2-1.2,1.2ZM324.63,124.68c-.54,0-1.02-.36-1.14-.9-.18-.66.24-1.32.9-1.44,1.56-.42,3.06-.78,4.44-1.32.6-.24,1.32.12,1.5.72.24.54-.06,1.26-.66,1.5-1.5.54-3.06,1.02-4.74,1.44h-.3ZM334.65,86.46h-4.32c-.66,0-1.2-.48-1.2-1.2,0-.66.54-1.2,1.2-1.2h1.92v-.48c0-.66.54-1.2,1.2-1.2s1.2.54,1.2,1.2v2.88ZM330.81,109.5c-.24,0-.48-.06-.66-.18-.6-.36-.72-1.08-.36-1.68.72-1.08,1.26-2.46,1.68-4.02.18-.66.84-1.02,1.44-.84.66.12,1.02.78.9,1.44-.48,1.8-1.14,3.42-2.04,4.74-.18.36-.6.54-.96.54ZM333.33,100.38h-.06c-.66-.06-1.14-.6-1.14-1.26.06-.78.12-1.62.12-2.46v-.36c-.48-.12-.84-.6-.84-1.14,0-.66.54-1.2,1.2-1.2h2.04v2.7c0,.9-.06,1.8-.12,2.58,0,.66-.54,1.14-1.2,1.14ZM333.45,79.98c-.66,0-1.2-.54-1.2-1.2v-4.32h2.88c.66,0,1.2.54,1.2,1.2,0,.72-.54,1.2-1.2,1.2h-.48v1.92c0,.66-.54,1.2-1.2,1.2ZM333.57,121.32c-.42,0-.84-.18-1.02-.6-.36-.54-.18-1.32.42-1.62,1.38-.78,2.58-1.68,3.6-2.7.54-.42,1.26-.42,1.74.06.42.48.42,1.26-.06,1.68-1.2,1.14-2.58,2.16-4.08,3-.18.12-.42.18-.6.18ZM344.55,77.1c-.3,0-.54-.06-.72-.24h-3.9c-.66,0-1.2-.48-1.2-1.2,0-.66.54-1.2,1.2-1.2h5.82v1.44c0,.66-.54,1.2-1.2,1.2ZM340.47,114.78c-.24,0-.42-.06-.66-.18-.54-.36-.72-1.08-.36-1.68.78-1.2,1.44-2.58,1.98-4.02.24-.66.96-.96,1.56-.72.6.18.96.9.72,1.5-.6,1.68-1.38,3.18-2.22,4.56-.24.36-.6.54-1.02.54ZM343.83,105.84h-.24c-.66-.12-1.08-.78-.96-1.38.3-1.44.48-3,.6-4.62.06-.66.6-1.2,1.26-1.14.66.06,1.2.6,1.14,1.26-.12,1.74-.3,3.36-.6,4.92-.12.6-.66.96-1.2.96ZM344.73,86.46h-1.38v-5.76c0-.66.54-1.2,1.2-1.2s1.2.54,1.2,1.2v3.9c.12.18.18.42.18.66,0,.72-.54,1.2-1.2,1.2ZM349.41,96.36h-4.8c-.66,0-1.2-.48-1.2-1.2,0-.66.54-1.2,1.2-1.2h4.8c.66,0,1.2.54,1.2,1.2,0,.72-.54,1.2-1.2,1.2ZM354.15,86.7c-.3,0-.54-.06-.72-.24h-3.9c-.66,0-1.2-.48-1.2-1.2,0-.66.54-1.2,1.2-1.2h5.82v1.44c0,.66-.54,1.2-1.2,1.2ZM354.15,96.3c-.66,0-1.2-.54-1.2-1.2v-4.8c0-.66.54-1.2,1.2-1.2s1.2.54,1.2,1.2v4.8c0,.66-.54,1.2-1.2,1.2Z" fill="#666" stroke-width="0"/>
      <path d="M363.75,97.62c-.72,0-1.2-.54-1.2-1.2v-3h4.2c.66,0,1.2.54,1.2,1.2s-.54,1.2-1.2,1.2h-1.8v.6c0,.66-.54,1.2-1.2,1.2ZM367.35,107.22h-4.8v-6c0-.66.48-1.2,1.2-1.2.66,0,1.2.54,1.2,1.2v3.6h2.4c.66,0,1.2.54,1.2,1.2s-.54,1.2-1.2,1.2ZM376.35,95.82h-4.8c-.72,0-1.2-.54-1.2-1.2s.48-1.2,1.2-1.2h4.8c.66,0,1.2.54,1.2,1.2s-.54,1.2-1.2,1.2ZM376.95,107.22h-4.8c-.72,0-1.2-.54-1.2-1.2s.48-1.2,1.2-1.2h4.8c.66,0,1.2.54,1.2,1.2s-.54,1.2-1.2,1.2ZM385.95,95.82h-4.8c-.72,0-1.2-.54-1.2-1.2s.48-1.2,1.2-1.2h4.8c.66,0,1.2.54,1.2,1.2s-.54,1.2-1.2,1.2ZM386.55,107.22h-4.8c-.72,0-1.2-.54-1.2-1.2s.48-1.2,1.2-1.2h4.8c.66,0,1.2.54,1.2,1.2s-.54,1.2-1.2,1.2ZM395.55,95.82h-4.8c-.72,0-1.2-.54-1.2-1.2s.48-1.2,1.2-1.2h4.8c.66,0,1.2.54,1.2,1.2s-.54,1.2-1.2,1.2ZM396.15,107.22h-4.8c-.72,0-1.2-.54-1.2-1.2s.48-1.2,1.2-1.2h4.8c.66,0,1.2.54,1.2,1.2s-.54,1.2-1.2,1.2ZM405.15,95.82h-4.8c-.72,0-1.2-.54-1.2-1.2s.48-1.2,1.2-1.2h4.8c.66,0,1.2.54,1.2,1.2s-.54,1.2-1.2,1.2ZM405.75,107.22h-4.8c-.72,0-1.2-.54-1.2-1.2s.48-1.2,1.2-1.2h4.8c.66,0,1.2.54,1.2,1.2s-.54,1.2-1.2,1.2ZM411.75,98.82c-.72,0-1.2-.54-1.2-1.2v-1.8h-.6c-.72,0-1.2-.54-1.2-1.2s.48-1.2,1.2-1.2h3v4.2c0,.66-.54,1.2-1.2,1.2ZM412.95,107.22h-2.4c-.72,0-1.2-.54-1.2-1.2s.48-1.2,1.2-1.2v-2.4c0-.66.48-1.2,1.2-1.2.66,0,1.2.54,1.2,1.2v4.8Z" fill="#666" stroke-width="0"/>
      <path d="M426.45,80.7c-.72,0-1.2-.54-1.2-1.2v-3.18h4.02c.66,0,1.2.54,1.2,1.2s-.54,1.2-1.2,1.2h-1.62v.78c0,.66-.54,1.2-1.2,1.2ZM426.45,90.3c-.72,0-1.2-.54-1.2-1.2v-4.8c0-.66.48-1.2,1.2-1.2.66,0,1.2.54,1.2,1.2v4.8c0,.66-.54,1.2-1.2,1.2ZM426.45,99.9c-.72,0-1.2-.54-1.2-1.2v-4.8c0-.66.48-1.2,1.2-1.2.66,0,1.2.54,1.2,1.2v4.8c0,.66-.54,1.2-1.2,1.2ZM426.45,109.5c-.72,0-1.2-.54-1.2-1.2v-4.8c0-.66.48-1.2,1.2-1.2.66,0,1.2.54,1.2,1.2v4.8c0,.66-.54,1.2-1.2,1.2ZM427.83,118.92c-.48,0-.9-.3-1.08-.72-.6-1.38-1.02-3.06-1.26-4.98-.12-.66.36-1.26,1.02-1.32.66-.12,1.26.36,1.38,1.02.18,1.68.54,3.12,1.08,4.32.24.6-.06,1.32-.66,1.56-.18.06-.3.12-.48.12ZM435.21,124.32h-.24c-1.98-.42-3.6-1.08-4.86-1.98-.54-.36-.72-1.08-.3-1.62.36-.54,1.08-.66,1.62-.3,1.08.72,2.4,1.26,4.02,1.56.66.12,1.08.78.9,1.38-.12.6-.6.96-1.14.96ZM438.15,79.44c-.54,0-.96-.3-1.14-.72h-2.94c-.66,0-1.2-.54-1.2-1.2s.54-1.2,1.2-1.2h5.28v1.92c0,.66-.54,1.2-1.2,1.2ZM438.15,89.04c-.72,0-1.2-.54-1.2-1.2v-4.8c0-.66.48-1.2,1.2-1.2.66,0,1.2.54,1.2,1.2v4.8c0,.66-.54,1.2-1.2,1.2ZM436.95,94.86v-2.22c0-.66.48-1.2,1.2-1.2.42,0,.78.24.96.54.9-.18,1.8-.36,2.7-.54.66-.12,1.32.3,1.44.9.12.66-.3,1.32-.9,1.44-1.38.3-2.7.54-4.02.78l-1.38.3ZM438.15,105.66c-.72,0-1.2-.54-1.2-1.2v-1.86l.96-.18c1.26-.24,2.58-.48,3.84-.72.66-.12,1.32.3,1.44.96.12.66-.3,1.26-.96,1.38-.96.18-1.92.42-2.94.6-.06.54-.54,1.02-1.14,1.02ZM439.71,114.66c-.12,0-.3,0-.42-.06-.48-.24-.9-.48-1.2-.78-.78-.84-1.14-2.28-1.14-4.5,0-.66.48-1.26,1.2-1.26.66,0,1.2.54,1.2,1.2v.06c0,2.28.42,2.76.42,2.82.06.06.12.12.36.18.66.24.96.96.72,1.56-.18.48-.66.78-1.14.78ZM440.85,124.86h-.9c-.66,0-1.2-.6-1.2-1.26.06-.66.6-1.08,1.26-1.14h4.74c.66,0,1.2.48,1.2,1.14s-.48,1.2-1.2,1.26h-3.9ZM442.35,115.02c-.72,0-1.2-.54-1.2-1.2s.48-1.2,1.2-1.2c1.56,0,3.12,0,4.74-.06.6,0,1.2.54,1.2,1.2.06.66-.48,1.2-1.14,1.2-1.62.06-3.24.06-4.8.06ZM446.67,103.08c-.54,0-1.02-.36-1.14-.96-.18-.6.24-1.26.9-1.44,1.56-.3,3.12-.72,4.62-1.08.66-.18,1.32.24,1.5.84.12.66-.24,1.32-.9,1.5-1.56.36-3.12.78-4.68,1.08-.12.06-.18.06-.3.06ZM446.73,92.76c-.54,0-1.02-.36-1.14-.9-.18-.66.24-1.32.9-1.5,1.5-.36,3.06-.72,4.62-1.14.6-.18,1.26.18,1.44.84.18.66-.18,1.32-.84,1.5-1.56.36-3.12.78-4.68,1.14-.12.06-.18.06-.3.06ZM449.55,124.74c-.66,0-1.14-.48-1.2-1.14,0-.66.54-1.2,1.2-1.26,1.56,0,3.18-.06,4.8-.12.66-.06,1.2.48,1.2,1.14.06.66-.48,1.2-1.14,1.26-1.62.06-3.24.12-4.8.12h-.06ZM451.89,114.84c-.6,0-1.14-.48-1.2-1.14,0-.66.54-1.2,1.2-1.26,1.56,0,3.18-.06,4.8-.12.66-.12,1.2.48,1.2,1.14.06.66-.48,1.2-1.14,1.26-1.62.06-3.24.12-4.8.12h-.06ZM456.03,100.74c-.54,0-1.02-.36-1.2-.9-.18-.6.24-1.26.84-1.44,1.56-.42,3.06-.9,4.56-1.38.66-.18,1.32.18,1.5.84.24.6-.12,1.26-.78,1.5-1.56.42-3.06.9-4.62,1.32-.12.06-.24.06-.3.06ZM456.03,90.3c-.54,0-1.02-.36-1.14-.9-.18-.6.18-1.32.78-1.5,1.56-.42,3.06-.9,4.56-1.38.66-.24,1.32.12,1.5.78.24.6-.12,1.26-.72,1.5-1.56.48-3.12.96-4.62,1.44-.12,0-.24.06-.36.06ZM456.63,76.02c-.42,0-.84-.24-1.08-.66-.3-.6-.06-1.32.54-1.62l4.32-2.16c.54-.3,1.26-.06,1.56.54.3.6.06,1.32-.48,1.62l-4.32,2.16c-.18.06-.36.12-.54.12ZM459.03,83.76c-.42,0-.84-.24-1.02-.66-.72-1.38-1.5-2.76-2.28-4.2-.3-.6-.12-1.32.48-1.62.6-.3,1.32-.12,1.62.48.78,1.44,1.56,2.82,2.28,4.26.3.6.06,1.32-.48,1.62-.18.06-.42.12-.6.12ZM459.15,124.44c-.6,0-1.14-.54-1.2-1.14,0-.66.48-1.26,1.14-1.26,1.62-.12,3.18-.18,4.8-.24.66,0,1.2.42,1.26,1.08.06.66-.48,1.26-1.14,1.26-1.62.12-3.18.18-4.8.3h-.06ZM461.49,114.48c-.6,0-1.14-.54-1.2-1.14,0-.66.48-1.26,1.14-1.26,1.62-.12,3.18-.18,4.8-.3.66-.06,1.2.48,1.26,1.14.06.66-.48,1.2-1.14,1.26-1.56.12-3.18.18-4.8.3h-.06ZM462.09,85.38c-.42,0-.84-.24-1.08-.66-.24-.6,0-1.32.6-1.62l3.42-1.62c-.24-.12-.42-.3-.48-.48-.78-1.56-1.5-2.94-2.22-4.26-.3-.6-.06-1.32.54-1.62.6-.3,1.32-.06,1.62.48.66,1.32,1.38,2.76,2.16,4.32.18.36.18.72.06,1.02.3.06.66.3.84.66.24.6,0,1.32-.6,1.62l-4.32,2.1c-.18.06-.36.06-.54.06ZM466.95,91.14c-.48,0-.96-.36-1.14-.84l-.9-3c-.42-.12-.72-.36-.9-.78-.18-.66.12-1.32.72-1.56l1.74-.6,1.62,5.22c.24.6-.12,1.26-.78,1.5-.12,0-.24.06-.36.06ZM465.21,97.92c-.54,0-1.02-.3-1.14-.84-.24-.6.12-1.26.72-1.5.84-.24,1.62-.54,2.46-.84-.18-.6.18-1.2.78-1.38.66-.18,1.32.18,1.5.78l.66,2.1-1.08.42c-1.2.42-2.34.78-3.54,1.2-.12.06-.24.06-.36.06ZM466.05,74.76c-.42,0-.84-.24-1.08-.66-.3-.6-.06-1.32.54-1.62l4.32-2.16c.54-.3,1.26-.06,1.56.54.3.6.12,1.32-.48,1.62l-4.32,2.16c-.18.06-.36.12-.54.12ZM468.99,82.68c-.42,0-.84-.24-1.02-.66-.78-1.44-1.56-2.82-2.28-4.2-.3-.6-.12-1.32.48-1.62s1.32-.12,1.62.48c.78,1.38,1.5,2.76,2.28,4.26.3.6.06,1.32-.48,1.62-.18.06-.42.12-.6.12ZM467.49,122.7c-.66,0-1.2-.48-1.2-1.08l-.18-4.8c0-.66.54-1.2,1.2-1.26.66,0,1.2.54,1.2,1.2l.18,4.8c0,.6-.48,1.14-1.2,1.14ZM472.17,84.06c-.42,0-.84-.24-1.08-.66-.3-.6,0-1.32.6-1.62l4.32-2.04c.6-.3,1.32-.06,1.62.54.24.6,0,1.32-.6,1.62l-4.32,2.04c-.18.12-.36.12-.54.12ZM475.29,79.62c-.42,0-.84-.24-1.08-.6-.78-1.56-1.5-3-2.22-4.26-.3-.6-.06-1.32.54-1.62.6-.3,1.32-.12,1.62.48.66,1.32,1.44,2.76,2.22,4.26.3.6.06,1.32-.54,1.62-.18.12-.36.12-.54.12Z" fill="#666" stroke-width="0"/>
      <path d="M482.73,116.1c-.42,0-.84-.3-1.08-.72l-.78-1.68,1.26-.42c1.32-.48,2.64-.96,3.9-1.5.6-.3,1.32,0,1.56.6.3.6,0,1.32-.6,1.56-1.02.42-2.04.84-3.06,1.2-.12.36-.3.66-.66.84-.18.06-.36.12-.54.12ZM486.93,124.68c-.42,0-.84-.24-1.08-.72l-2.1-4.26c-.3-.6,0-1.32.6-1.56.6-.3,1.32-.06,1.56.54l2.1,4.26c.3.6.06,1.32-.54,1.62-.18.06-.36.12-.54.12ZM488.55,79.56c-.72,0-1.2-.48-1.2-1.2v-1.5h5.7c.66,0,1.2.54,1.2,1.2,0,.72-.54,1.2-1.2,1.2h-3.72c-.24.24-.48.3-.78.3ZM489.99,89.16h-2.64v-6c0-.66.48-1.2,1.2-1.2.66,0,1.2.54,1.2,1.2v3.6h.24c.66,0,1.2.54,1.2,1.2,0,.72-.54,1.2-1.2,1.2ZM490.83,112.02c-.42,0-.84-.24-1.08-.66-.3-.6-.06-1.32.54-1.62,1.38-.72,2.76-1.5,4.08-2.34.54-.3,1.32-.18,1.68.42.36.54.18,1.26-.42,1.62-1.38.9-2.76,1.68-4.26,2.46-.18.06-.36.12-.54.12ZM491.37,123.3c-.48,0-.96-.3-1.14-.78-.24-.6.06-1.26.66-1.5,1.5-.6,2.94-1.2,4.32-1.92.6-.3,1.32-.06,1.62.54.3.6.06,1.32-.54,1.62-1.5.66-3,1.32-4.5,1.92-.12.06-.3.12-.42.12ZM499.59,89.16h-4.8c-.72,0-1.2-.48-1.2-1.2,0-.66.48-1.2,1.2-1.2h4.8c.66,0,1.2.54,1.2,1.2,0,.72-.54,1.2-1.2,1.2ZM502.65,79.26h-4.8c-.72,0-1.2-.48-1.2-1.2,0-.66.48-1.2,1.2-1.2h4.8c.66,0,1.2.54,1.2,1.2,0,.72-.54,1.2-1.2,1.2ZM498.99,106.92c-.36,0-.72-.12-.96-.48-.42-.54-.3-1.26.24-1.68,1.08-.78,2.16-1.62,3.18-2.52l.48-.42c.48-.42,1.26-.36,1.68.12.48.54.42,1.26-.12,1.74l-.48.42c-1.08.9-2.22,1.8-3.3,2.58-.24.18-.48.24-.72.24ZM500.01,119.16c-.42,0-.84-.24-1.08-.6-.3-.6-.12-1.32.42-1.68,1.38-.78,2.7-1.62,4.02-2.52.54-.36,1.26-.18,1.68.36.36.54.24,1.26-.36,1.68-1.32.9-2.7,1.74-4.08,2.58-.24.12-.42.18-.6.18ZM509.19,89.16h-4.8c-.72,0-1.2-.48-1.2-1.2,0-.66.48-1.2,1.2-1.2h4.8c.66,0,1.2.54,1.2,1.2,0,.72-.54,1.2-1.2,1.2ZM506.25,100.68c-.3,0-.6-.12-.84-.36-.48-.48-.48-1.2,0-1.68,1.08-1.14,2.16-2.34,3.12-3.48.36-.54,1.14-.6,1.68-.18.48.42.6,1.14.18,1.68-1.02,1.2-2.1,2.46-3.3,3.66-.24.24-.54.36-.84.36ZM512.25,79.26h-4.8c-.72,0-1.2-.48-1.2-1.2,0-.66.48-1.2,1.2-1.2h4.8c.66,0,1.2.54,1.2,1.2,0,.72-.54,1.2-1.2,1.2ZM507.93,113.76c-.36,0-.72-.18-.96-.48-.42-.54-.3-1.26.18-1.68.96-.72,1.86-1.5,2.76-2.34l.84-.66,1.62,1.44c.48.42.54,1.2.12,1.68-.48.54-1.2.54-1.68.12l-.12-.06c-.66.6-1.32,1.14-2.04,1.68-.24.18-.48.3-.72.3ZM512.19,93.18c-.18,0-.42-.06-.6-.18-.6-.36-.78-1.08-.42-1.62.6-1.02,1.2-2.04,1.62-3.06v-.36c0-.66.48-1.2,1.2-1.2h2.1l-.72,1.68c-.6,1.38-1.32,2.82-2.16,4.2-.18.36-.6.54-1.02.54ZM518.73,118.56c-.3,0-.6-.12-.84-.3-1.14-1.08-2.34-2.16-3.54-3.24-.48-.42-.54-1.2-.06-1.68.42-.48,1.2-.54,1.68-.12,1.2,1.14,2.4,2.22,3.54,3.24.48.48.54,1.26.06,1.74-.24.24-.54.36-.84.36ZM521.85,79.26h-4.8c-.72,0-1.2-.48-1.2-1.2,0-.66.48-1.2,1.2-1.2h4.8c.66,0,1.2.54,1.2,1.2,0,.72-.54,1.2-1.2,1.2ZM522.93,107.94c-.3,0-.54-.12-.78-.3-1.2-1.08-2.4-2.1-3.6-3.18-.48-.48-.54-1.2-.12-1.68.48-.54,1.2-.6,1.68-.12,1.26,1.08,2.46,2.1,3.6,3.18.54.42.54,1.2.12,1.68-.24.3-.54.42-.9.42ZM520.17,101.16c-.24,0-.54-.06-.72-.24-.54-.36-.66-1.14-.24-1.68.9-1.26,1.8-2.58,2.64-3.84.3-.6,1.08-.78,1.62-.42.6.36.78,1.08.42,1.68-.84,1.32-1.8,2.7-2.76,4.02-.24.3-.6.48-.96.48ZM525.45,125.34l-.84-.84c-1.08-1.02-2.1-2.04-3.24-3-.48-.42-.48-1.2,0-1.68.42-.48,1.2-.54,1.68-.06.84.84,1.74,1.68,2.58,2.4.3,0,.66.12.9.36.48.42.48,1.2,0,1.68l-1.08,1.14ZM525.21,93c-.18,0-.36,0-.54-.12-.6-.3-.84-1.02-.54-1.62.6-1.14,1.08-2.34,1.62-3.48v-.42c0-.66.48-1.2,1.2-1.2.66,0,1.2.54,1.2,1.2v.84l-.12.24c-.54,1.32-1.14,2.64-1.74,3.9-.24.42-.66.66-1.08.66ZM530.01,114.36c-.24,0-.54-.06-.78-.3-1.14-1.02-2.34-2.1-3.54-3.24-.48-.42-.54-1.2-.06-1.68.42-.48,1.2-.54,1.68-.06,1.2,1.08,2.4,2.16,3.54,3.24.48.42.54,1.2.06,1.68-.24.24-.54.36-.9.36ZM526.95,83.76c-.72,0-1.2-.48-1.2-1.2v-3.66c-.24-.24-.3-.48-.3-.84,0-.66.48-1.2,1.2-1.2h1.5v5.7c0,.72-.54,1.2-1.2,1.2ZM528.99,121.14c-.3,0-.6-.06-.84-.3-.48-.48-.48-1.26,0-1.68l3.3-3.48c.48-.48,1.26-.48,1.74-.06.48.48.48,1.26,0,1.74l-3.3,3.42c-.24.24-.54.36-.9.36Z" fill="#666" stroke-width="0"/>
    </g>
  </g>
</svg>